<?xml version="1.0" encoding="UTF-8"?>
<svg version="1.1" xmlns="http://www.w3.org/2000/svg" width="957" height="266">
<path d="M0 0 C7.76338062 -0.0699099 15.52668569 -0.12301727 23.29030323 -0.15543652 C26.89636775 -0.17100636 30.50221485 -0.1920828 34.1081543 -0.22631836 C37.59654017 -0.25922567 41.08471864 -0.27691805 44.57324791 -0.28463173 C46.53334273 -0.29276668 48.49335562 -0.31613435 50.45332336 -0.33988953 C59.28842933 -0.3415299 69.06879856 -0.21122554 76 6 C76 6.66 76 7.32 76 8 C76.66 8 77.32 8 78 8 C85.01931402 16.22200023 84.17665819 24.90996985 83.3828125 35.09765625 C81.92373148 49.97134953 81.92373148 49.97134953 79 57 C78.2996924 60.50153798 77.86116189 63.26310494 78.5246582 66.78466797 C79.06042151 70.40870635 78.77699989 73.37964955 78.29296875 77.0078125 C78.20751297 77.65571747 78.12205719 78.30362244 78.03401184 78.97116089 C77.85240538 80.3314514 77.66644098 81.69116657 77.47631836 83.05029297 C77.18756452 85.12453653 76.91608216 87.20053314 76.64648438 89.27734375 C76.46716929 90.60430537 76.28686459 91.93113372 76.10546875 93.2578125 C75.86026489 95.05436279 75.86026489 95.05436279 75.61010742 96.88720703 C75.06477109 99.66953526 74.41297979 101.576856 73 104 C72.67 104.66 72.34 105.32 72 106 C70.0625 108.625 70.0625 108.625 68 111 C67.34 111 66.68 111 66 111 C65.505 112.485 65.505 112.485 65 114 C63.01751285 114.71706982 61.01584651 115.38290413 59 116 C58.34 116.66 57.68 117.32 57 118 C54.16017151 118.26742554 54.16017151 118.26742554 50.48657227 118.29052734 C49.81810272 118.29724457 49.14963318 118.30396179 48.46090698 118.31088257 C46.24599829 118.32991685 44.03139169 118.33378936 41.81640625 118.3359375 C40.27945327 118.34236148 38.74250152 118.34908953 37.20555115 118.35610962 C33.98165043 118.36809582 30.75785698 118.37178906 27.53393555 118.37060547 C23.39974672 118.37040215 19.26624439 118.39771032 15.13221836 118.43214989 C11.95721773 118.45437079 8.7823836 118.45844451 5.60731316 118.45738602 C4.08304413 118.45974902 2.55877099 118.46861179 1.03457832 118.48405075 C-1.09649819 118.503616 -3.22607788 118.49791216 -5.35717773 118.48583984 C-6.57026108 118.48868988 -7.78334442 118.49153992 -9.03318787 118.49447632 C-12 118 -12 118 -13.91981506 116.10049438 C-15.29509918 113.42615921 -15.04934964 112.39107885 -14.3125 109.5 C-12.94078387 103.23049991 -12.34218554 96.99196322 -11.78637695 90.609375 C-11.39004681 86.2735146 -10.85776843 82.00979474 -10.10009766 77.72143555 C-8.78537188 69.94172578 -7.81486212 62.12396075 -6.8359375 54.296875 C-6.63722144 52.72216209 -6.4382939 51.14747586 -6.23916626 49.57281494 C-5.72088195 45.4698465 -5.20543144 41.3665271 -4.69061279 37.26312256 C-4.16267312 33.05930972 -3.63199544 28.85584259 -3.1015625 24.65234375 C-2.06506007 16.43522778 -1.0315574 8.21773822 0 0 Z M25 28 C25.33 29.32 25.66 30.64 26 32 C25.33333333 32.66666667 24.66666667 33.33333333 24 34 C23.59721575 36.7930295 23.2467133 39.57146607 22.9375 42.375 C22.84662109 43.15617187 22.75574219 43.93734375 22.66210938 44.7421875 C22.30895952 47.84353363 22 50.87612042 22 54 C21.68578929 56.00309329 21.3548954 58.00371336 21 60 C21.66 60 22.32 60 23 60 C22.52079102 60.56388428 22.04158203 61.12776855 21.54785156 61.70874023 C19.84959957 64.22263533 19.51315151 65.67235993 19.234375 68.66015625 C19.14929688 69.53607422 19.06421875 70.41199219 18.9765625 71.31445312 C18.90179688 72.22130859 18.82703125 73.12816406 18.75 74.0625 C18.65976562 74.97322266 18.56953125 75.88394531 18.4765625 76.82226562 C17.95186278 81.98026262 17.95186278 81.98026262 19 87 C19.33 87.99 19.66 88.98 20 90 C23.74993479 90.05811773 27.49975352 90.09363593 31.25 90.125 C32.31347656 90.14175781 33.37695312 90.15851563 34.47265625 90.17578125 C36.00986328 90.18544922 36.00986328 90.18544922 37.578125 90.1953125 C38.99206543 90.21102295 38.99206543 90.21102295 40.43457031 90.22705078 C43.14778815 89.98692016 44.73657048 89.4972771 47 88 C49.15755813 83.34421666 49.86004318 78.11380678 50 73 C48.96207228 71.73818905 48.96207228 71.73818905 46.68334961 71.88647461 C45.18300171 71.89432983 45.18300171 71.89432983 43.65234375 71.90234375 C42.57275391 71.90556641 41.49316406 71.90878906 40.38085938 71.91210938 C38.67639648 71.92467773 38.67639648 71.92467773 36.9375 71.9375 C35.22723633 71.94426758 35.22723633 71.94426758 33.48242188 71.95117188 C30.65489649 71.96300253 27.8274736 71.9794859 25 72 C23.45665946 65.11834839 25.58282954 59.83434093 28.6875 53.625 C34.06135794 47.52494504 40.6387292 46.46253739 48.4609375 45.4921875 C51.15798818 45.21509154 51.15798818 45.21509154 53 43 C53.6849487 40.47961059 53.6849487 40.47961059 54.125 37.625 C54.29257812 36.66851562 54.46015625 35.71203125 54.6328125 34.7265625 C55.0889771 31.79782705 55.0889771 31.79782705 55 28 C45.1 28 35.2 28 25 28 Z M17 88 C17 88.66 17 89.32 17 90 C17.66 89.67 18.32 89.34 19 89 C18.34 88.67 17.68 88.34 17 88 Z " fill="#F1F2F1" transform="translate(393,22)"/>
<path d="M0 0 C1.13525368 -0.00788544 1.13525368 -0.00788544 2.29344177 -0.01593018 C4.7789309 -0.02906541 7.26377269 -0.02041812 9.74926758 -0.01025391 C11.48228579 -0.01227588 13.21530317 -0.01518835 14.94831848 -0.01895142 C18.57207375 -0.02336543 22.19560659 -0.01697115 25.81933594 -0.00292969 C30.4667251 0.01420016 35.11359594 0.00429135 39.7609663 -0.01364708 C43.335718 -0.02447719 46.91034633 -0.02104282 50.4851017 -0.0132637 C52.19914117 -0.01126154 53.91319182 -0.01372155 55.62721825 -0.02070236 C58.01870904 -0.02830848 60.40935362 -0.01672697 62.80078125 0 C63.50992676 -0.00607269 64.21907227 -0.01214539 64.94970703 -0.0184021 C67.84611697 0.01919182 69.75619864 0.06798349 72.15571594 1.7749939 C74.05142001 4.685883 73.22980013 7.46023679 72.76879883 10.75927734 C71.21847736 18.00487701 68.13033943 22.01750624 62.10864258 26.25927734 C59.01820253 28.09323458 56.49069841 28.51076799 52.97583008 28.48583984 C52.17338867 28.48261719 51.37094727 28.47939453 50.54418945 28.47607422 C49.71081055 28.46769531 48.87743164 28.45931641 48.01879883 28.45068359 C47.17381836 28.44617188 46.32883789 28.44166016 45.45825195 28.43701172 C43.37423728 28.42523762 41.29025906 28.40730249 39.20629883 28.38818359 C35.53769449 36.81068773 35.19032776 46.26474807 34.33520508 55.32568359 C33.28167051 66.14529019 31.93942063 76.92234895 30.546875 87.70288086 C30.13753194 90.87423584 29.73316867 94.04619956 29.3293457 97.21826172 C29.06856538 99.25280378 28.80750834 101.2873104 28.54614258 103.32177734 C28.36643166 104.73105751 28.36643166 104.73105751 28.18309021 106.16880798 C27.65066097 110.2749493 27.10645393 114.34250118 26.20629883 118.38818359 C22.12320463 118.50433288 18.04053506 118.57541816 13.95629883 118.63818359 C12.79743164 118.67169922 11.63856445 118.70521484 10.44458008 118.73974609 C9.32954102 118.75263672 8.21450195 118.76552734 7.06567383 118.77880859 C5.5260498 118.81022949 5.5260498 118.81022949 3.95532227 118.84228516 C0.40638396 118.25604846 -0.60346305 117.20430144 -2.79370117 114.38818359 C-2.99119568 111.71490479 -2.99119568 111.71490479 -2.56103516 108.62353516 C-2.41025009 107.46001526 -2.25946503 106.29649536 -2.10411072 105.09771729 C-1.91788651 103.83747742 -1.73166229 102.57723755 -1.53979492 101.27880859 C-1.35992986 99.95223135 -1.1820747 98.62538021 -1.00611877 97.29827881 C-0.53516942 93.7864831 -0.03786996 90.27891528 0.465271 86.77160645 C0.95963027 83.2968761 1.43109852 79.81907166 1.90356445 76.34130859 C2.45921647 72.26228064 3.01719534 68.18363605 3.58706665 64.10656738 C5.24897234 52.21432701 6.74676391 40.30694158 8.20629883 28.38818359 C-1.03370117 28.38818359 -10.27370117 28.38818359 -19.79370117 28.38818359 C-19.79370117 27.72818359 -19.79370117 27.06818359 -19.79370117 26.38818359 C-20.45370117 26.38818359 -21.11370117 26.38818359 -21.79370117 26.38818359 C-22.17051173 18.47516183 -21.58225868 11.85503888 -16.48120117 5.51318359 C-11.16186733 1.30719869 -6.71110005 -0.05796619 0 0 Z " fill="#F2F1F0" transform="translate(504.793701171875,21.61181640625)"/>
<path d="M0 0 C2.7783975 0.48621956 5.56008174 0.94732105 8.34375 1.40234375 C10.93123757 1.98452845 12.81464025 2.49879567 15 4 C16.11714584 6.62423881 16.45369812 9.17744031 17 12 C17.66 12 18.32 12 19 12 C18.67 12.66 18.34 13.32 18 14 C17.34 13.67 16.68 13.34 16 13 C16.185625 13.7425 16.37125 14.485 16.5625 15.25 C17 18 17 18 16.375 20 C16.189375 20.99 16.189375 20.99 16 22 C16.474375 22.680625 16.94875 23.36125 17.4375 24.0625 C19.83770986 28.57489454 19.67977004 32.99442061 19 38 C16.36739401 42.31747382 12.74679472 42.84382758 8 44 C4.54321289 44.22705078 4.54321289 44.22705078 0.97265625 44.1953125 C-0.95610352 44.18564453 -0.95610352 44.18564453 -2.92382812 44.17578125 C-4.26172154 44.15907601 -5.59961217 44.14214619 -6.9375 44.125 C-8.30272783 44.11495322 -9.6679628 44.10583036 -11.03320312 44.09765625 C-14.35565199 44.07417605 -17.67773321 44.04133359 -21 44 C-22.68758835 40.62482331 -22.14153358 36.80144401 -22.1328125 33.08984375 C-22.13376923 32.20720352 -22.13472595 31.32456329 -22.13571167 30.41517639 C-22.13639269 28.54818653 -22.13454385 26.68119431 -22.13037109 24.81420898 C-22.1250154 21.94574712 -22.13032199 19.07744139 -22.13671875 16.20898438 C-22.13605808 14.39843715 -22.13477715 12.58789003 -22.1328125 10.77734375 C-22.13483673 9.91382797 -22.13686096 9.05031219 -22.13894653 8.16062927 C-22.11495439 2.11495439 -22.11495439 2.11495439 -21 1 C-18.22702103 0.56976097 -15.47299149 0.20001215 -12.6875 -0.125 C-11.91470703 -0.22425781 -11.14191406 -0.32351562 -10.34570312 -0.42578125 C-9.59611328 -0.51472656 -8.84652344 -0.60367188 -8.07421875 -0.6953125 C-7.04687622 -0.8193042 -7.04687622 -0.8193042 -5.9987793 -0.94580078 C-3.80774158 -1.00521331 -2.09948115 -0.6020354 0 0 Z M-10 12 C-9.67 13.65 -9.34 15.3 -9 17 C-8.67 16.34 -8.34 15.68 -8 15 C-7.34 15 -6.68 15 -6 15 C-6 15.66 -6 16.32 -6 17 C-3.03 17 -0.06 17 3 17 C3.33 15.35 3.66 13.7 4 12 C3.34 11.67 2.68 11.34 2 11 C1.01 11.495 1.01 11.495 0 12 C0 11.34 0 10.68 0 10 C-3.94727588 9.82057837 -6.5980513 9.90649311 -10 12 Z M-10 28 C-9.67 29.65 -9.34 31.3 -9 33 C-2.19909545 34.34305423 -2.19909545 34.34305423 4.125 32.1875 C6.21693046 30.22709907 6.21693046 30.22709907 6 28 C0.70700452 24.47133635 -4.32350903 25.78478401 -10 28 Z " fill="#F0F2F1" transform="translate(213,171)"/>
<path d="M0 0 C0.875 2.6875 0.875 2.6875 1 5 C1.66 5 2.32 5 3 5 C3 5.66 3 6.32 3 7 C2.34 7 1.68 7 1 7 C1.495 9.97 1.495 9.97 2 13 C1.01 13.33 0.02 13.66 -1 14 C-0.45244723 17.83286936 1.2333041 19.40098264 4 22 C4.66 22.99 5.32 23.98 6 25 C5.34 25 4.68 25 4 25 C4 28.3 4 31.6 4 35 C3.21625 35.28875 2.4325 35.5775 1.625 35.875 C-1.09671632 36.84912254 -1.09671632 36.84912254 -3 39 C-6.52025148 40.27848675 -10.02395723 40.11393001 -13.734375 40.09765625 C-15.02988281 40.09443359 -16.32539063 40.09121094 -17.66015625 40.08789062 C-19.02343817 40.07953598 -20.38671942 40.07107104 -21.75 40.0625 C-23.12890465 40.05748168 -24.50781104 40.05291935 -25.88671875 40.04882812 C-29.25785659 40.03704093 -32.62890628 40.02058635 -36 40 C-36.76661367 34.56100162 -37.14870059 29.30502895 -37.1328125 23.81640625 C-37.13376923 23.07543198 -37.13472595 22.3344577 -37.13571167 21.57102966 C-37.13638646 20.02236851 -37.1345816 18.47370441 -37.13037109 16.92504883 C-37.12495878 14.54437045 -37.13036703 12.16387615 -37.13671875 9.78320312 C-37.13605889 8.27343708 -37.13477965 6.76367115 -37.1328125 5.25390625 C-37.13483673 4.54045547 -37.13686096 3.8270047 -37.13894653 3.0919342 C-37.11498818 -1.88501182 -37.11498818 -1.88501182 -36 -3 C-9.77948226 -5.9683605 -9.77948226 -5.9683605 0 0 Z M-24 8 C-24.33 9.65 -24.66 11.3 -25 13 C-20.38 13 -15.76 13 -11 13 C-10.67 12.01 -10.34 11.02 -10 10 C-10.95865509 7.66924071 -10.95865509 7.66924071 -14 6 C-17.85349073 5.48111412 -21.11676552 5.11676552 -24 8 Z M-24 24 C-24.72382467 26.05925139 -24.72382467 26.05925139 -25 28 C-20.52621297 30.30905137 -15.94517384 30.66065191 -11 30 C-10.34 29.34 -9.68 28.68 -9 28 C-9.16507646 25.42459787 -9.16507646 25.42459787 -10 23 C-12.3396669 21.83016655 -13.83391527 21.8338759 -16.4375 21.8125 C-17.21996094 21.79832031 -18.00242187 21.78414062 -18.80859375 21.76953125 C-21.29205987 21.85913936 -21.29205987 21.85913936 -24 24 Z " fill="#EEF0EF" transform="translate(443,175)"/>
<path d="M0 0 C2.02408755 0.09002398 4.04544287 0.24641038 6.0625 0.4375 C7.71958984 0.59025391 7.71958984 0.59025391 9.41015625 0.74609375 C10.26480469 0.82988281 11.11945313 0.91367188 12 1 C11.88194465 6.80255353 11.75771038 12.60492888 11.62768555 18.40722656 C11.58430797 20.38212462 11.542635 22.35706087 11.50268555 24.33203125 C11.44505127 27.1667839 11.3813373 30.00134378 11.31640625 32.8359375 C11.29133751 34.16569107 11.29133751 34.16569107 11.26576233 35.52230835 C11.11387171 41.77225659 11.11387171 41.77225659 10 44 C10.99 43.67 11.98 43.34 13 43 C12 46 12 46 10 47 C8.12556779 47.04613987 6.24961556 47.0379669 4.375 47 C0.74321207 46.95238419 -2.61981769 47.01720817 -6.1875 47.6875 C-11.75459255 48.14381906 -16.38945099 47.00433365 -20.8671875 43.56640625 C-24.70765543 39.8821296 -25.960679 37.52722765 -26.09765625 32.20703125 C-26.09102785 30.74215562 -26.07913087 29.27729622 -26.0625 27.8125 C-26.05798828 27.06291016 -26.05347656 26.31332031 -26.04882812 25.54101562 C-26.03706354 23.69397617 -26.01912865 21.84697787 -26 20 C-25.01 20 -24.02 20 -23 20 C-22.71125 19.38125 -22.4225 18.7625 -22.125 18.125 C-21 16 -21 16 -19 14 C-15.8828125 13.296875 -15.8828125 13.296875 -12.125 12.75 C-10.89007813 12.55921875 -9.65515625 12.3684375 -8.3828125 12.171875 C-5.06651813 12.00337967 -3.70124868 12.18106872 -1 14 C-1 13.31292969 -1 12.62585938 -1 11.91796875 C-1 1 -1 1 0 0 Z M-11 24 C-11 24.99 -11 25.98 -11 27 C-11.99 27.33 -12.98 27.66 -14 28 C-14 28.99 -14 29.98 -14 31 C-13.34 31 -12.68 31 -12 31 C-11.34 32.65 -10.68 34.3 -10 36 C-6.62599422 36.41725678 -6.62599422 36.41725678 -3 36 C-0.82979708 33.91078244 -0.82979708 33.91078244 0 31 C-0.25243794 27.4658688 -1.00210751 25.99683874 -3 23 C-6.82593769 21.72468744 -7.51988856 21.67992571 -11 24 Z " fill="#EEF1EF" transform="translate(296,168)"/>
<path d="M0 0 C0.80308594 -0.02578125 1.60617187 -0.0515625 2.43359375 -0.078125 C3.48740234 0.08429688 3.48740234 0.08429688 4.5625 0.25 C7.09025351 4.04163027 6.78693035 7.05874031 6.6875 11.4375 C6.67847656 12.18708984 6.66945313 12.93667969 6.66015625 13.70898438 C6.63662578 15.55612654 6.60075561 17.40310412 6.5625 19.25 C9.68447478 17.9410428 9.68447478 17.9410428 11.5625 15.25 C12.2225 15.25 12.8825 15.25 13.5625 15.25 C14.2225 14.26 14.8825 13.27 15.5625 12.25 C17.5859375 11.9921875 17.5859375 11.9921875 19.9375 12.125 C23.05516684 12.28140469 25.56053349 12.14099463 28.5625 11.25 C29.0575 13.725 29.0575 13.725 29.5625 16.25 C28.94375 16.4975 28.325 16.745 27.6875 17 C25.18431694 18.47246063 24.73204719 19.66028837 23.5625 22.25 C22.9025 22.58 22.2425 22.91 21.5625 23.25 C20.42899466 25.26669827 20.42899466 25.26669827 19.5625 27.25 C19.98402344 27.79269531 20.40554688 28.33539063 20.83984375 28.89453125 C21.38769531 29.60996094 21.93554688 30.32539063 22.5 31.0625 C23.04527344 31.77019531 23.59054687 32.47789062 24.15234375 33.20703125 C25.5625 35.25 25.5625 35.25 26.5625 38.25 C27.2225 38.25 27.8825 38.25 28.5625 38.25 C30.25 40.5625 30.25 40.5625 31.5625 43.25 C31.2325 44.24 30.9025 45.23 30.5625 46.25 C20.28154015 47.1616122 20.28154015 47.1616122 16.2421875 45.01953125 C13.31812309 42.54202898 11.79026024 40.93328073 10.5625 37.25 C9.5725 36.92 8.5825 36.59 7.5625 36.25 C7.418125 37.343125 7.27375 38.43625 7.125 39.5625 C6.5625 43.25 6.5625 43.25 5.5625 46.25 C1.9325 46.25 -1.6975 46.25 -5.4375 46.25 C-5.462144 39.85962203 -5.48033317 33.46927148 -5.49243164 27.07885742 C-5.49747308 24.90307127 -5.50430607 22.72728853 -5.51293945 20.55151367 C-5.52501338 17.43146933 -5.53073005 14.31146962 -5.53515625 11.19140625 C-5.54031754 10.21224747 -5.54547882 9.23308868 -5.55079651 8.22425842 C-5.55087204 7.32340012 -5.55094757 6.42254181 -5.55102539 5.49438477 C-5.553246 4.69718521 -5.55546661 3.89998566 -5.55775452 3.07862854 C-5.32059153 -0.5277475 -3.1113106 0.05973716 0 0 Z " fill="#EEF1EF" transform="translate(533.4375,168.75)"/>
<path d="M0 0 C0.90105469 0.00902344 1.80210937 0.01804688 2.73046875 0.02734375 C3.41753906 0.03894531 4.10460937 0.05054688 4.8125 0.0625 C5.65046731 4.71787393 5.8286692 8.43328475 4.8125 13.0625 C5.451875 12.7325 6.09125 12.4025 6.75 12.0625 C11.80717501 10.41117755 16.68020879 10.16219927 21.625 12.25 C25.86896142 15.76642517 27.9719007 18.62735792 28.8125 24.0625 C28.95168537 25.75407394 29.0560836 27.44880373 29.12890625 29.14453125 C29.17080078 30.07587891 29.21269531 31.00722656 29.25585938 31.96679688 C29.29517578 32.92650391 29.33449219 33.88621094 29.375 34.875 C29.41818359 35.85404297 29.46136719 36.83308594 29.50585938 37.84179688 C29.6115226 40.24857027 29.71362327 42.65543983 29.8125 45.0625 C27.33474905 46.30137548 25.57596293 46.22991669 22.8125 46.25 C21.925625 46.26417969 21.03875 46.27835938 20.125 46.29296875 C17.8125 46.0625 17.8125 46.0625 15.8125 44.0625 C15.58544922 41.81591797 15.58544922 41.81591797 15.6171875 39.0546875 C15.62363281 38.06855469 15.63007812 37.08242187 15.63671875 36.06640625 C15.65347656 35.03386719 15.67023437 34.00132812 15.6875 32.9375 C15.69652344 31.89722656 15.70554687 30.85695312 15.71484375 29.78515625 C15.73846253 27.21070908 15.77139851 24.63671788 15.8125 22.0625 C12.8425 22.3925 9.8725 22.7225 6.8125 23.0625 C5.66746343 29.073942 5.77113699 34.94233769 5.875 41.05078125 C5.8125 44.0625 5.8125 44.0625 4.8125 46.0625 C1.1825 46.0625 -2.4475 46.0625 -6.1875 46.0625 C-7.12882428 41.33086308 -7.30522011 36.76582418 -7.25 31.9609375 C-7.24621338 31.20205231 -7.24242676 30.44316711 -7.23852539 29.6612854 C-7.22638214 27.25329713 -7.20775094 24.84543288 -7.1875 22.4375 C-7.16087585 19.25781567 -7.14090617 16.07819149 -7.125 12.8984375 C-7.11670166 12.17232269 -7.10840332 11.44620789 -7.09985352 10.6980896 C-7.08355578 7.33782382 -7.13263339 4.27382129 -8.1875 1.0625 C-5.17259443 0.05753148 -3.14568308 -0.04085303 0 0 Z " fill="#EBEEEC" transform="translate(737.1875,168.9375)"/>
<path d="M0 0 C1.40668945 0.01450195 1.40668945 0.01450195 2.84179688 0.02929688 C3.81826172 0.05443359 4.79472656 0.07957031 5.80078125 0.10546875 C6.78884766 0.11900391 7.77691406 0.13253906 8.79492188 0.14648438 C11.23492356 0.18184672 13.67382844 0.23119842 16.11328125 0.29296875 C16.11328125 0.95296875 16.11328125 1.61296875 16.11328125 2.29296875 C18.58828125 2.78796875 18.58828125 2.78796875 21.11328125 3.29296875 C20.78328125 4.61296875 20.45328125 5.93296875 20.11328125 7.29296875 C21.10328125 7.29296875 22.09328125 7.29296875 23.11328125 7.29296875 C24.07979302 12.95396625 24.26459638 18.43127094 24.23828125 24.16796875 C24.24408203 25.46734375 24.24408203 25.46734375 24.25 26.79296875 C24.24871094 27.61539063 24.24742187 28.4378125 24.24609375 29.28515625 C24.24496582 30.0313623 24.24383789 30.77756836 24.24267578 31.54638672 C24.11328125 33.29296875 24.11328125 33.29296875 23.11328125 34.29296875 C21.30689369 34.39264448 19.49663439 34.42377413 17.6875 34.42578125 C16.02750977 34.42771484 16.02750977 34.42771484 14.33398438 34.4296875 C13.16802734 34.42582031 12.00207031 34.42195313 10.80078125 34.41796875 C9.06924805 34.42376953 9.06924805 34.42376953 7.30273438 34.4296875 C5.63694336 34.42775391 5.63694336 34.42775391 3.9375 34.42578125 C2.91744873 34.42465332 1.89739746 34.42352539 0.84643555 34.42236328 C-1.59642471 34.30671201 -3.59003441 34.11659395 -5.88671875 33.29296875 C-8.85896919 29.55013487 -9.62882886 26.02095008 -9.88671875 21.29296875 C-9.09919177 18.14286083 -8.09167267 17.43131265 -5.38671875 15.60546875 C-1.52413948 14.15700152 1.85059356 13.76423069 5.94140625 13.50390625 C8.15892648 13.41958663 8.15892648 13.41958663 10.11328125 12.29296875 C9.78328125 11.30296875 9.45328125 10.31296875 9.11328125 9.29296875 C8.12328125 9.29296875 7.13328125 9.29296875 6.11328125 9.29296875 C6.11328125 9.95296875 6.11328125 10.61296875 6.11328125 11.29296875 C3.47328125 11.29296875 0.83328125 11.29296875 -1.88671875 11.29296875 C-2.21671875 11.95296875 -2.54671875 12.61296875 -2.88671875 13.29296875 C-3.87671875 12.96296875 -4.86671875 12.63296875 -5.88671875 12.29296875 C-7.07421875 8.73046875 -7.07421875 8.73046875 -7.88671875 5.29296875 C-8.87671875 5.29296875 -9.86671875 5.29296875 -10.88671875 5.29296875 C-10.55671875 4.30296875 -10.22671875 3.31296875 -9.88671875 2.29296875 C-9.22671875 2.62296875 -8.56671875 2.95296875 -7.88671875 3.29296875 C-7.49250732 2.80401123 -7.0982959 2.31505371 -6.69213867 1.8112793 C-4.33298213 -0.17270914 -3.05014876 -0.05545725 0 0 Z M5.11328125 20.29296875 C5.11328125 21.61296875 5.11328125 22.93296875 5.11328125 24.29296875 C4.45328125 24.29296875 3.79328125 24.29296875 3.11328125 24.29296875 C3.44328125 24.95296875 3.77328125 25.61296875 4.11328125 26.29296875 C5.76328125 26.29296875 7.41328125 26.29296875 9.11328125 26.29296875 C9.27139513 23.24026412 9.27139513 23.24026412 8.11328125 20.29296875 C7.12328125 20.29296875 6.13328125 20.29296875 5.11328125 20.29296875 Z M9.11328125 20.29296875 C10.11328125 22.29296875 10.11328125 22.29296875 10.11328125 22.29296875 Z " fill="#EFF2F1" transform="translate(457.88671875,180.70703125)"/>
<path d="M0 0 C0.33 0.99 0.66 1.98 1 3 C1.99 3.66 2.98 4.32 4 5 C3.67 5.33 3.34 5.66 3 6 C2.91330568 7.4887186 2.89296506 8.981445 2.90234375 10.47265625 C2.90556641 11.37177734 2.90878906 12.27089844 2.91210938 13.19726562 C2.92048828 14.14279297 2.92886719 15.08832031 2.9375 16.0625 C2.94201172 17.01189453 2.94652344 17.96128906 2.95117188 18.93945312 C2.9629989 21.29303065 2.97947975 23.64648477 3 26 C3.66 26.33 4.32 26.66 5 27 C4.34 28.32 3.68 29.64 3 31 C2.154375 30.98839844 1.30875 30.97679687 0.4375 30.96484375 C-6.97190799 30.85333861 -6.97190799 30.85333861 -14.3125 31.6875 C-19.06892825 32.09058714 -21.67697846 30.92992033 -26 29 C-26 28.34 -26 27.68 -26 27 C-26.66 27 -27.32 27 -28 27 C-28.52973311 25.37787941 -29.04853107 23.75218416 -29.5625 22.125 C-29.85253906 21.22007812 -30.14257812 20.31515625 -30.44140625 19.3828125 C-31 17 -31 17 -30 15 C-29.34 15 -28.68 15 -28 15 C-27.67 14.01 -27.34 13.02 -27 12 C-25.68 12 -24.36 12 -23 12 C-23.66 11.01 -24.32 10.02 -25 9 C-25 8.01 -25 7.02 -25 6 C-25.66 6 -26.32 6 -27 6 C-27.33 4.02 -27.66 2.04 -28 0 C-19.87788102 -5.7305199 -7.9995451 -5.75967247 0 0 Z M-20 7 C-20.66 8.32 -21.32 9.64 -22 11 C-18.04 11 -14.08 11 -10 11 C-9.67 10.01 -9.34 9.02 -9 8 C-13.04828708 5.30114195 -15.45267752 5.48422584 -20 7 Z M-17 18 C-16.67 18.99 -16.34 19.98 -16 21 C-16.99 21.495 -16.99 21.495 -18 22 C-15.03 22.495 -15.03 22.495 -12 23 C-11.67 21.35 -11.34 19.7 -11 18 C-12.98 18 -14.96 18 -17 18 Z " fill="#EFF2F0" transform="translate(263,184)"/>
<path d="M0 0 C1.3303125 0.01353516 1.3303125 0.01353516 2.6875 0.02734375 C3.8321875 0.04474609 3.8321875 0.04474609 5 0.0625 C6.77926341 0.0625 8.55825287 -0.00318747 10.3359375 -0.078125 C11.68226999 -0.11537531 13.02862549 -0.15180068 14.375 -0.1875 C15.04789062 -0.22101563 15.72078125 -0.25453125 16.4140625 -0.2890625 C19.90180835 -0.35771891 21.66722146 -0.19154544 24.4765625 1.953125 C26 4.0625 26 4.0625 26 6.0625 C26.66 6.0625 27.32 6.0625 28 6.0625 C29.2602938 10.59196246 29.38898287 15.07477828 29.625 19.75 C29.6765625 20.62978516 29.728125 21.50957031 29.78125 22.41601562 C29.82507813 23.25197266 29.86890625 24.08792969 29.9140625 24.94921875 C29.9548291 25.71451904 29.9955957 26.47981934 30.03759766 27.26831055 C30 29.0625 30 29.0625 29 30.0625 C29.495 31.0525 29.495 31.0525 30 32.0625 C29.34 32.0625 28.68 32.0625 28 32.0625 C28 32.7225 28 33.3825 28 34.0625 C24.37 34.0625 20.74 34.0625 17 34.0625 C15.49316597 29.54199791 15.96030519 24.94021921 16.0390625 20.22265625 C16.07360999 16.90033916 16.05882614 14.23897842 15 11.0625 C13.08333333 10.22916667 13.08333333 10.22916667 11 10.0625 C8.64057251 10.95605522 8.64057251 10.95605522 7.87890625 14.1328125 C6.84356662 18.09402395 6.83618677 21.84444548 6.9375 25.9375 C6.99093765 28.31199014 7.02072943 30.68749909 7 33.0625 C6 34.0625 6 34.0625 3.34765625 34.1953125 C2.26355469 34.19273437 1.17945313 34.19015625 0.0625 34.1875 C-1.55978516 34.19136719 -1.55978516 34.19136719 -3.21484375 34.1953125 C-6 34.0625 -6 34.0625 -8 33.0625 C-7.67 32.0725 -7.34 31.0825 -7 30.0625 C-7.33 29.7325 -7.66 29.4025 -8 29.0625 C-7.34 28.7325 -6.68 28.4025 -6 28.0625 C-6.33 19.1525 -6.66 10.2425 -7 1.0625 C-4.50246371 -0.18626815 -2.78331496 -0.03640964 0 0 Z " fill="#F3F4F3" transform="translate(355,180.9375)"/>
<path d="M0 0 C2.25278727 0.09336418 4.50294123 0.25177371 6.75 0.4375 C12.93313707 0.93256724 18.99006347 1.01060794 25.1953125 0.7421875 C28.58151303 1.05345384 30.31808882 1.93056681 33 4 C35.17599074 7.08536 35.19362924 9.60416523 35.0625 13.3125 C34.97441094 17.69346256 35.23408521 21.69172932 36 26 C35.34 26 34.68 26 34 26 C34 27.32 34 28.64 34 30 C34.66 30 35.32 30 36 30 C36 31.32 36 32.64 36 34 C33.51245214 35.24377393 31.77344699 35.13306235 29 35.125 C28.113125 35.12757813 27.22625 35.13015625 26.3125 35.1328125 C24 35 24 35 22 34 C22.00523682 33.44538086 22.01047363 32.89076172 22.01586914 32.31933594 C22.03671031 29.79623557 22.04968282 27.27315336 22.0625 24.75 C22.07087891 23.87730469 22.07925781 23.00460938 22.08789062 22.10546875 C22.09111328 21.26113281 22.09433594 20.41679687 22.09765625 19.546875 C22.10289307 18.77182617 22.10812988 17.99677734 22.11352539 17.19824219 C22.00036998 15.00716402 21.60552448 13.10362139 21 11 C16.85365669 11.93281043 16.85365669 11.93281043 13.80859375 14.640625 C12.7114144 17.84205652 12.84811089 20.62466733 12.9375 24 C13.03606962 28.04564024 12.9876061 31.0495756 12 35 C8.04 35 4.08 35 0 35 C-0.14303566 30.64007539 -0.2854351 26.2801306 -0.42724609 21.92016602 C-0.47557386 20.43708739 -0.5240752 18.95401441 -0.57275391 17.47094727 C-0.64270984 15.33871906 -0.7120407 13.2064713 -0.78125 11.07421875 C-0.82314453 9.79119873 -0.86503906 8.50817871 -0.90820312 7.1862793 C-0.96759403 5.12481453 -1 3.06232011 -1 1 C-0.67 0.67 -0.34 0.34 0 0 Z " fill="#F1F3F2" transform="translate(654,180)"/>
<path d="M0 0 C0 0.66 0 1.32 0 2 C0.99 2.33 1.98 2.66 3 3 C7.01825268 6.66370097 7.58692542 9.91798574 7.9140625 15.09765625 C8.35352287 29.9394314 8.35352287 29.9394314 7 34 C6.11957031 33.98839844 5.23914063 33.97679687 4.33203125 33.96484375 C3.17058594 33.95582031 2.00914062 33.94679687 0.8125 33.9375 C-0.33605469 33.92589844 -1.48460937 33.91429687 -2.66796875 33.90234375 C-5.89467749 33.89993905 -5.89467749 33.89993905 -8.578125 34.53515625 C-13.18184948 35.41877434 -17.62988359 34.59586685 -22 33 C-25.28945114 29.8089863 -26.45787253 25.47255161 -27 21 C-27.33 21 -27.66 21 -28 21 C-28 19.35 -28 17.7 -28 16 C-26.515 16.99 -26.515 16.99 -25 18 C-24.34 17.01 -23.68 16.02 -23 15 C-20.875 14.3125 -20.875 14.3125 -19 14 C-19.66 13.34 -20.32 12.68 -21 12 C-21 11.01 -21 10.02 -21 9 C-21.66 9 -22.32 9 -23 9 C-23.33 7.02 -23.66 5.04 -24 3 C-19.97010589 0.16075642 -16.89220867 -0.47586762 -12 -0.75 C-10.205625 -0.86601562 -10.205625 -0.86601562 -8.375 -0.984375 C-5.38578813 -0.99821394 -2.88718767 -0.72179692 0 0 Z M-18 12 C-17.67 12.66 -17.34 13.32 -17 14 C-13.37 14 -9.74 14 -6 14 C-6.33 12.35 -6.66 10.7 -7 9 C-11.73940561 8.72657275 -14.48550811 8.62608778 -18 12 Z M-13 21 C-13 22.32 -13 23.64 -13 25 C-10.525 25.495 -10.525 25.495 -8 26 C-7.34 24.02 -6.68 22.04 -6 20 C-8.42797311 20 -10.62907005 20.50085685 -13 21 Z " fill="#EFF2F0" transform="translate(336,181)"/>
<path d="M0 0 C1.3096875 -0.00515625 2.619375 -0.0103125 3.96875 -0.015625 C7.15242072 0.22385466 8.86102529 0.55351625 11.5 2.25 C11.5 2.91 11.5 3.57 11.5 4.25 C13.975 4.745 13.975 4.745 16.5 5.25 C16.52465746 9.3617256 16.54283959 13.47342278 16.55493164 17.58520508 C16.5599708 18.98495228 16.56680216 20.3846942 16.57543945 21.78442383 C16.5875232 23.79245777 16.59269807 25.80052957 16.59765625 27.80859375 C16.60289307 29.01829834 16.60812988 30.22800293 16.61352539 31.47436523 C16.5 34.25 16.5 34.25 15.5 35.25 C12.26196361 35.32317596 9.03501583 35.24610888 5.796875 35.1875 C2.59092826 35.14391524 2.59092826 35.14391524 -0.12109375 35.80859375 C-2.84604572 36.31420881 -4.64062218 35.99043915 -7.3125 35.3125 C-8.10269531 35.11785156 -8.89289062 34.92320312 -9.70703125 34.72265625 C-10.59455078 34.48869141 -10.59455078 34.48869141 -11.5 34.25 C-11.5 33.59 -11.5 32.93 -11.5 32.25 C-12.16 32.25 -12.82 32.25 -13.5 32.25 C-14.00559908 30.81445975 -14.5042749 29.3764798 -15 27.9375 C-15.41765625 26.73673828 -15.41765625 26.73673828 -15.84375 25.51171875 C-16.5 23.25 -16.5 23.25 -16.5 20.25 C-11.6544736 15.91452901 -8.81192589 15.09712256 -2.375 14.6875 C-1.09367188 14.60371094 0.18765625 14.51992187 1.5078125 14.43359375 C2.49523437 14.37300781 3.48265625 14.31242188 4.5 14.25 C4.5 13.59 4.5 12.93 4.5 12.25 C1.53 11.92 -1.44 11.59 -4.5 11.25 C-5.49 12.735 -5.49 12.735 -6.5 14.25 C-9.47 13.755 -9.47 13.755 -12.5 13.25 C-14.625 6.5 -14.625 6.5 -13.5 4.25 C-12.84 4.25 -12.18 4.25 -11.5 4.25 C-11.5 3.59 -11.5 2.93 -11.5 2.25 C-7.75380451 -0.15826853 -4.37270385 -0.01721537 0 0 Z M-4.5 24.25 C-3.84 24.25 -3.18 24.25 -2.5 24.25 C-2.5 24.91 -2.5 25.57 -2.5 26.25 C-0.85 26.58 0.8 26.91 2.5 27.25 C3.49 25.93 4.48 24.61 5.5 23.25 C5.17 22.59 4.84 21.93 4.5 21.25 C2.85 22.57 1.2 23.89 -0.5 25.25 C-0.17 23.93 0.16 22.61 0.5 21.25 C-1.46822886 21.25 -3.00528545 23.09280164 -4.5 24.25 Z " fill="#EFF1F0" transform="translate(631.5,179.75)"/>
<path d="M0 0 C4.73121075 3.28664026 4.73121075 3.28664026 6.03125 5.88671875 C6.11497659 7.40820201 6.13855027 8.93327653 6.12890625 10.45703125 C6.12568359 11.35292969 6.12246094 12.24882812 6.11914062 13.171875 C6.10657227 14.57759766 6.10657227 14.57759766 6.09375 16.01171875 C6.08923828 16.95660156 6.08472656 17.90148437 6.08007812 18.875 C6.06827357 21.21230262 6.05180759 23.54947936 6.03125 25.88671875 C7.68125 25.88671875 9.33125 25.88671875 11.03125 25.88671875 C10.04125 26.54671875 9.05125 27.20671875 8.03125 27.88671875 C7.37125 27.55671875 6.71125 27.22671875 6.03125 26.88671875 C6.051875 27.69109375 6.0725 28.49546875 6.09375 29.32421875 C6.03125 31.88671875 6.03125 31.88671875 5.03125 32.88671875 C3.34516034 32.95877386 1.65624341 32.97057943 -0.03125 32.94921875 C-0.95035156 32.94019531 -1.86945312 32.93117187 -2.81640625 32.921875 C-3.52667969 32.91027344 -4.23695313 32.89867187 -4.96875 32.88671875 C-6.58973279 27.90979503 -5.98831117 22.68034986 -5.90625 17.515625 C-5.95893568 14.4565626 -6.23964999 11.84299143 -6.96875 8.88671875 C-9.27875 9.21671875 -11.58875 9.54671875 -13.96875 9.88671875 C-16.05261889 15.16585328 -16.54785004 20.28210344 -16.96875 25.88671875 C-16.30875 26.21671875 -15.64875 26.54671875 -14.96875 26.88671875 C-15.62875 27.21671875 -16.28875 27.54671875 -16.96875 27.88671875 C-17.46375 30.36171875 -17.46375 30.36171875 -17.96875 32.88671875 C-21.59875 32.88671875 -25.22875 32.88671875 -28.96875 32.88671875 C-30.16458104 29.29922564 -29.98657444 26.59416175 -29.84765625 22.8125 C-29.82404526 22.12866745 -29.80043427 21.4448349 -29.77610779 20.74028015 C-29.6996355 18.55970649 -29.61554119 16.3795028 -29.53125 14.19921875 C-29.47801281 12.71941905 -29.42527252 11.23960137 -29.37304688 9.75976562 C-29.24404303 6.13519058 -29.10820273 2.51090852 -28.96875 -1.11328125 C-27.94394531 -1.10167969 -26.91914063 -1.09007812 -25.86328125 -1.078125 C-24.502606 -1.06874103 -23.14192876 -1.05964148 -21.78125 -1.05078125 C-21.10771484 -1.04240234 -20.43417969 -1.03402344 -19.74023438 -1.02539062 C-1.65733121 -0.93718134 -1.65733121 -0.93718134 0 0 Z " fill="#EFF2F0" transform="translate(515.96875,182.11328125)"/>
<path d="M0 0 C0.69029297 0.02771484 1.38058594 0.05542969 2.09179688 0.08398438 C7.11978657 0.42236093 10.17420558 1.78436316 14.0625 4.9375 C15.70558887 6.85297259 16.76910939 8.74868513 18.0625 10.9375 C17.4025 10.9375 16.7425 10.9375 16.0625 10.9375 C16.11579468 11.92145752 16.11579468 11.92145752 16.17016602 12.92529297 C16.32743583 15.88742662 16.4763205 18.84992329 16.625 21.8125 C16.70911133 23.36130859 16.70911133 23.36130859 16.79492188 24.94140625 C16.84326172 25.92753906 16.89160156 26.91367188 16.94140625 27.9296875 C16.9885376 28.84089355 17.03566895 29.75209961 17.08422852 30.69091797 C17.0625 32.9375 17.0625 32.9375 16.0625 34.9375 C15.26585937 34.92589844 14.46921875 34.91429687 13.6484375 34.90234375 C7.25660103 34.78886837 7.25660103 34.78886837 0.9375 35.5625 C-3.88610155 36.19166542 -9.66281693 35.59506053 -13.6796875 32.66796875 C-16.15196032 29.26667416 -16.19328602 25.03007626 -15.9375 20.9375 C-14 18.5 -14 18.5 -11.9375 16.9375 C-11.76417493 13.89565559 -11.76417493 13.89565559 -13 11.0625 C-14.00784889 7.7030037 -14.24984684 6.1746222 -12.9375 2.9375 C-8.77587055 -0.38865081 -5.09692553 -0.40226432 0 0 Z M-7.9375 10.9375 C-7.2775 11.2675 -6.6175 11.5975 -5.9375 11.9375 C-5.9375 12.5975 -5.9375 13.2575 -5.9375 13.9375 C-7.5875 14.2675 -9.2375 14.5975 -10.9375 14.9375 C-8.26272961 16.27488519 -6.46605477 15.88891191 -3.5 15.625 C-2.04787109 15.50705078 -2.04787109 15.50705078 -0.56640625 15.38671875 C2.28499179 15.08284819 2.28499179 15.08284819 5.0625 12.9375 C3.87726003 11.33335785 3.87726003 11.33335785 2.0625 9.9375 C-1.41664854 9.57127384 -4.54397414 10.16183695 -7.9375 10.9375 Z M-1.9375 20.9375 C-2.31968767 22.59364657 -2.65145102 24.26207024 -2.9375 25.9375 C-1.87104885 27.23383621 -1.87104885 27.23383621 0.625 27 C1.429375 26.979375 2.23375 26.95875 3.0625 26.9375 C4.17086423 25.05433841 4.17086423 25.05433841 5.0625 22.9375 C4.7325 22.2775 4.4025 21.6175 4.0625 20.9375 C2.0825 20.9375 0.1025 20.9375 -1.9375 20.9375 Z " fill="#EEF0EF" transform="translate(707.9375,180.0625)"/>
<path d="M0 0 C2.22923777 4.32734391 1.92470553 7.28400182 1 12 C-0.32 12 -1.64 12 -3 12 C-7.33579575 12.17109544 -7.33579575 12.17109544 -11 14 C-11.08790975 16.29151417 -11.10694038 18.58572524 -11.09765625 20.87890625 C-11.09553383 21.90889992 -11.09553383 21.90889992 -11.09336853 22.95970154 C-11.08775479 25.16067801 -11.07520007 27.36155409 -11.0625 29.5625 C-11.05748676 31.05143083 -11.05292355 32.54036324 -11.04882812 34.02929688 C-11.03778093 37.68623075 -11.02050713 41.34310558 -11 45 C-15.29 45 -19.58 45 -24 45 C-24 34.44 -24 23.88 -24 13 C-24.66 13 -25.32 13 -26 13 C-26 12.34 -26 11.68 -26 11 C-29.3 11.33 -32.6 11.66 -36 12 C-36.77842938 8.59437148 -37.09978121 5.49234244 -37 2 C-33.30908035 0.86099169 -29.74498343 0.79505588 -25.8984375 0.68359375 C-24.88192612 0.6524221 -24.88192612 0.6524221 -23.84487915 0.62062073 C-21.68835123 0.55548652 -19.53170503 0.49644609 -17.375 0.4375 C-15.91665494 0.39427419 -14.45832137 0.35065863 -13 0.30664062 C-2.69488373 0 -2.69488373 0 0 0 Z " fill="#F2F3F2" transform="translate(616,170)"/>
<path d="M0 0 C5.47725817 1.92184497 5.47725817 1.92184497 7 5.0625 C7 5.701875 7 6.34125 7 7 C6.34 7.66 5.68 8.32 5 9 C5.495 9.5775 5.99 10.155 6.5 10.75 C8 13 8 13 8 17 C4.95055026 20.13657687 3.12822195 20.90124676 -1.2578125 21.28515625 C-4.52973048 21.31032485 -7.74012253 21.28448144 -11 21 C-12 20 -12 20 -12.11352539 18.14233398 C-12.10828857 17.35157471 -12.10305176 16.56081543 -12.09765625 15.74609375 C-12.09443359 14.89208984 -12.09121094 14.03808594 -12.08789062 13.15820312 C-12.07951172 12.26037109 -12.07113281 11.36253906 -12.0625 10.4375 C-12.05798828 9.53580078 -12.05347656 8.63410156 -12.04882812 7.70507812 C-12.03700225 5.46998686 -12.0205222 3.23502563 -12 1 C-8.30701088 -0.84649456 -4.03903572 -0.34637979 0 0 Z M-7 4 C-6 6 -6 6 -6 6 Z M-1 4 C-1 4.66 -1 5.32 -1 6 C-2.98 6.99 -2.98 6.99 -5 8 C-3.35 7.67 -1.7 7.34 0 7 C-0.33 6.01 -0.66 5.02 -1 4 Z M-7 12 C-7 13.65 -7 15.3 -7 17 C-4.08347826 17.16681109 -4.08347826 17.16681109 -1 17 C-0.34 16.34 0.32 15.68 1 15 C0.67 14.01 0.34 13.02 0 12 C-0.78375 12.185625 -1.5675 12.37125 -2.375 12.5625 C-5 13 -5 13 -7 12 Z " fill="#EBF0ED" transform="translate(506,224)"/>
<path d="M0 0 C1.65 0 3.3 0 5 0 C5 0.99 5 1.98 5 3 C6.32 3.33 7.64 3.66 9 4 C9.12375 4.680625 9.2475 5.36125 9.375 6.0625 C10.30127703 12.59893399 10.30127703 12.59893399 14.125 17.4375 C14.74375 17.623125 15.3625 17.80875 16 18 C15.67 18.99 15.34 19.98 15 21 C12.1875 21.1875 12.1875 21.1875 9 21 C7.3125 19.5 7.3125 19.5 6 18 C5.01 18 4.02 18 3 18 C3.33 17.34 3.66 16.68 4 16 C2.68 16.33 1.36 16.66 0 17 C0 17.66 0 18.32 0 19 C-3 21 -3 21 -5.6875 20.625 C-6.8321875 20.315625 -6.8321875 20.315625 -8 20 C-6.23536928 13.89262558 -4.30442525 7.92566493 -2 2 C-1.34 2 -0.68 2 0 2 C0 1.34 0 0.68 0 0 Z M1 9 C1.33 9.99 1.66 10.98 2 12 C2.66 11.34 3.32 10.68 4 10 C3.01 9.67 2.02 9.34 1 9 Z " fill="#E9EFEB" transform="translate(605,224)"/>
<path d="M0 0 C1.21236328 0.01353516 1.21236328 0.01353516 2.44921875 0.02734375 C3.37154297 0.04474609 3.37154297 0.04474609 4.3125 0.0625 C4.3125 1.3825 4.3125 2.7025 4.3125 4.0625 C4.9725 4.0625 5.6325 4.0625 6.3125 4.0625 C7.07423392 8.3789922 7.47313604 11.80683453 6.3125 16.0625 C-1.07689929 17.12427776 -5.3306321 17.30041193 -11.6875 13.0625 C-11.6875 12.4025 -11.6875 11.7425 -11.6875 11.0625 C-11.0275 11.0625 -10.3675 11.0625 -9.6875 11.0625 C-9.6875 10.4025 -9.6875 9.7425 -9.6875 9.0625 C-10.3475 9.0625 -11.0075 9.0625 -11.6875 9.0625 C-11.6875 7.4125 -11.6875 5.7625 -11.6875 4.0625 C-11.0275 4.0625 -10.3675 4.0625 -9.6875 4.0625 C-9.0275 3.0725 -8.3675 2.0825 -7.6875 1.0625 C-4.80538698 0.10179566 -2.98899956 -0.04331883 0 0 Z M-2.6875 4.0625 C-2.6875 4.7225 -2.6875 5.3825 -2.6875 6.0625 C-1.6975 5.7325 -0.7075 5.4025 0.3125 5.0625 C-0.6775 4.7325 -1.6675 4.4025 -2.6875 4.0625 Z M-4.6875 5.0625 C-5.6775 5.7225 -6.6675 6.3825 -7.6875 7.0625 C-6.3675 7.0625 -5.0475 7.0625 -3.6875 7.0625 C-4.0175 6.4025 -4.3475 5.7425 -4.6875 5.0625 Z " fill="#EBF0ED" transform="translate(528.6875,228.9375)"/>
<path d="M0 0 C3 1 3 1 4 3 C4.01605041 4.52388763 3.9655743 6.04880674 3.87890625 7.5703125 C3.83056641 8.46621094 3.78222656 9.36210937 3.73242188 10.28515625 C3.67634766 11.22230469 3.62027344 12.15945312 3.5625 13.125 C3.51029297 14.06988281 3.45808594 15.01476562 3.40429688 15.98828125 C3.27443239 18.3258419 3.1394613 20.66299545 3 23 C1.56521768 23.20421603 0.12863371 23.39580098 -1.30859375 23.58203125 C-2.10837646 23.6900708 -2.90815918 23.79811035 -3.73217773 23.90942383 C-6.9136746 24.0364919 -8.6321191 23.06234788 -11 21 C-11 20.34 -11 19.68 -11 19 C-11.66 18.67 -12.32 18.34 -13 18 C-12.34 14.7 -11.68 11.4 -11 8 C-6.545 7.01 -6.545 7.01 -2 6 C-1.67 4.68 -1.34 3.36 -1 2 C-0.67 1.34 -0.34 0.68 0 0 Z M-7 12 C-7 13.98 -7 15.96 -7 18 C-6.34 17.67 -5.68 17.34 -5 17 C-5.33 16.34 -5.66 15.68 -6 15 C-4.68 14.67 -3.36 14.34 -2 14 C-2 13.34 -2 12.68 -2 12 C-3.65 12 -5.3 12 -7 12 Z M-3 15 C-2.34 15.66 -1.68 16.32 -1 17 C-1 16.34 -1 15.68 -1 15 C-1.66 15 -2.32 15 -3 15 Z M-4 16 C-3 18 -3 18 -3 18 Z " fill="#E2EAE5" transform="translate(238,222)"/>
<path d="M0 0 C1.65 0.33 3.3 0.66 5 1 C5 7.6 5 14.2 5 21 C-4 22.125 -4 22.125 -10 19 C-10.35813217 14.43381483 -10.60240582 11.07094368 -8.3125 7 C-5.78993231 4.81831983 -4.2870282 4.27391902 -1 4 C-0.67 2.68 -0.34 1.36 0 0 Z M-6 11 C-5.67 11.99 -5.34 12.98 -5 14 C-4.67 13.01 -4.34 12.02 -4 11 C-4.66 11 -5.32 11 -6 11 Z M-1 11 C-1 11.99 -1 12.98 -1 14 C-0.34 13.67 0.32 13.34 1 13 C0.34 12.34 -0.32 11.68 -1 11 Z M-5 15 C-4 17 -4 17 -4 17 Z " fill="#E2EAE6" transform="translate(466,224)"/>
<path d="M0 0 C1.14662109 -0.03867188 1.14662109 -0.03867188 2.31640625 -0.078125 C4.4375 0.25 4.4375 0.25 6.203125 1.37890625 C7.99374199 4.09316429 7.72866174 6.22398602 7.625 9.4375 C7.59792969 10.52417969 7.57085937 11.61085937 7.54296875 12.73046875 C7.50816406 13.56191406 7.47335937 14.39335937 7.4375 15.25 C1.86317486 16.91251802 -1.8692505 17.43609365 -7.5625 16.25 C-7.8925 15.26 -8.2225 14.27 -8.5625 13.25 C-9.2225 13.25 -9.8825 13.25 -10.5625 13.25 C-9.75 10.8125 -9.75 10.8125 -8.5625 8.25 C-7.5725 7.92 -6.5825 7.59 -5.5625 7.25 C-6.8825 6.59 -8.2025 5.93 -9.5625 5.25 C-9.2325 3.93 -8.9025 2.61 -8.5625 1.25 C-5.66691295 0.43211209 -3.00785913 0.06107328 0 0 Z M-0.5625 4.25 C-0.8925 4.91 -1.2225 5.57 -1.5625 6.25 C-0.2425 5.92 1.0775 5.59 2.4375 5.25 C1.4475 4.92 0.4575 4.59 -0.5625 4.25 Z M1.4375 9.25 C2.4375 11.25 2.4375 11.25 2.4375 11.25 Z " fill="#EFF3F0" transform="translate(359.5625,228.75)"/>
<path d="M0 0 C3.75131784 2.85426357 5.55716506 5.55125893 7 10 C7.33 10.66 7.66 11.32 8 12 C6.68 12 5.36 12 4 12 C4 13.32 4 14.64 4 16 C-5.41002278 17.51708428 -5.41002278 17.51708428 -10 15 C-10 14.34 -10 13.68 -10 13 C-10.66 13 -11.32 13 -12 13 C-12 9.04 -12 5.08 -12 1 C-7.91470157 -0.02132461 -4.16829744 -0.73753175 0 0 Z M-2 4 C-2 4.66 -2 5.32 -2 6 C-1.01 5.67 -0.02 5.34 1 5 C0.01 4.67 -0.98 4.34 -2 4 Z M-4 4 C-4.66 4.66 -5.32 5.32 -6 6 C-5.01 6 -4.02 6 -3 6 C-3.33 5.34 -3.66 4.68 -4 4 Z M-6 9 C-5 11 -5 11 -5 11 Z " fill="#E9EFEB" transform="translate(305,229)"/>
<path d="M0 0 C1.17755859 -0.02126953 1.17755859 -0.02126953 2.37890625 -0.04296875 C4.4375 0.1875 4.4375 0.1875 6.4375 2.1875 C7.0703125 4.4296875 7.0703125 4.4296875 7.5625 7.0625 C7.73007812 7.92617187 7.89765625 8.78984375 8.0703125 9.6796875 C8.4375 12.1875 8.4375 12.1875 8.4375 16.1875 C2.90782059 16.89783431 -2.06233036 17.49017176 -7.5625 16.1875 C-7.5625 15.5275 -7.5625 14.8675 -7.5625 14.1875 C-8.2225 14.1875 -8.8825 14.1875 -9.5625 14.1875 C-9.5625 13.1975 -9.5625 12.2075 -9.5625 11.1875 C-8.9025 11.1875 -8.2425 11.1875 -7.5625 11.1875 C-7.2325 9.8675 -6.9025 8.5475 -6.5625 7.1875 C-7.5525 7.1875 -8.5425 7.1875 -9.5625 7.1875 C-8.75 4.25 -8.75 4.25 -7.5625 1.1875 C-4.76092552 0.25364184 -2.90802197 0.02395405 0 0 Z M-1.5625 4.1875 C-1.2325 4.8475 -0.9025 5.5075 -0.5625 6.1875 C0.0975 5.5275 0.7575 4.8675 1.4375 4.1875 C0.4475 4.1875 -0.5425 4.1875 -1.5625 4.1875 Z " fill="#E9EEEB" transform="translate(418.5625,228.8125)"/>
<path d="M0 0 C0.97324219 -0.00257813 1.94648437 -0.00515625 2.94921875 -0.0078125 C5.3125 0.125 5.3125 0.125 6.3125 1.125 C6.35330783 3.12458364 6.35504356 5.12545254 6.3125 7.125 C6.9725 6.465 7.6325 5.805 8.3125 5.125 C8.70187141 8.5319998 8.46638085 9.88868298 6.5625 12.8125 C3.19000557 16.27867483 3.19000557 16.27867483 0.3125 17.125 C-4.49407972 16.81819704 -6.35219924 15.72618046 -10.6875 13.125 C-10.3575 9.165 -10.0275 5.205 -9.6875 1.125 C-6.18029943 0.24819986 -3.56707211 -0.00952489 0 0 Z M-3.6875 4.125 C-3.501875 4.764375 -3.31625 5.40375 -3.125 6.0625 C-2.980625 6.743125 -2.83625 7.42375 -2.6875 8.125 C-3.0175 8.455 -3.3475 8.785 -3.6875 9.125 C-3.6875 10.115 -3.6875 11.105 -3.6875 12.125 C-2.3675 11.795 -1.0475 11.465 0.3125 11.125 C0.6425 9.475 0.9725 7.825 1.3125 6.125 C-1.1625 5.135 -1.1625 5.135 -3.6875 4.125 Z " fill="#ECF1EE" transform="translate(693.6875,228.875)"/>
<path d="M0 0 C1.0725 -0.02578125 2.145 -0.0515625 3.25 -0.078125 C4.61125 0.08429688 4.61125 0.08429688 6 0.25 C8.15942819 3.48914229 8.27232978 4.49859733 8.25 8.25 C8.25515625 9.11625 8.2603125 9.9825 8.265625 10.875 C8 13.25 8 13.25 6 16.25 C3.9765625 16.83203125 3.9765625 16.83203125 1.625 17.0625 C0.85414063 17.15144531 0.08328125 17.24039063 -0.7109375 17.33203125 C-3.34578054 17.23760855 -4.8076495 16.69695133 -7 15.25 C-8.43834146 10.69525204 -8 5.98106821 -8 1.25 C-5.27976922 -0.11011539 -3.0338119 0.0437569 0 0 Z M-6 8.25 C-5.01 9.24 -4.02 10.23 -3 11.25 C-2.01 10.92 -1.02 10.59 0 10.25 C-1.98 9.59 -3.96 8.93 -6 8.25 Z " fill="#ECF1EE" transform="translate(324,228.75)"/>
<path d="M0 0 C2.0625 0.4375 2.0625 0.4375 4 1 C4 2.65 4 4.3 4 6 C8.455 5.505 8.455 5.505 13 5 C13 6.65 13 8.3 13 10 C11.68 10 10.36 10 9 10 C9 10.99 9 11.98 9 13 C9.66 13 10.32 13 11 13 C11 13.66 11 14.32 11 15 C11.66 15 12.32 15 13 15 C13 16.98 13 18.96 13 21 C10.87561661 21.08078641 8.7503677 21.13909141 6.625 21.1875 C5.44164062 21.22230469 4.25828125 21.25710937 3.0390625 21.29296875 C1.53472656 21.14794922 1.53472656 21.14794922 0 21 C-2.63446996 17.04829506 -2.03519063 13.90619397 -1.6875 9.375 C-1.63916016 8.58609375 -1.59082031 7.7971875 -1.54101562 6.984375 C-1.14467886 1.14467886 -1.14467886 1.14467886 0 0 Z M3 7 C4 10 4 10 4 10 Z " fill="#E9EFEC" transform="translate(566,224)"/>
<path d="M0 0 C2.58891193 0.35680517 4.26485753 0.88750919 6.4375 2.3359375 C7.52414885 6.50142474 8.36844743 10.74002762 6.125 14.5859375 C1.85869389 17.36399729 -2.6103875 16.64331 -7.5625 16.3359375 C-7.8925 15.3459375 -8.2225 14.3559375 -8.5625 13.3359375 C-9.5525 13.0059375 -10.5425 12.6759375 -11.5625 12.3359375 C-11.5625 11.6759375 -11.5625 11.0159375 -11.5625 10.3359375 C-10.9025 10.3359375 -10.2425 10.3359375 -9.5625 10.3359375 C-10.2225 8.3559375 -10.8825 6.3759375 -11.5625 4.3359375 C-8.37734851 -0.29701013 -5.18480222 -0.07903662 0 0 Z M-0.5625 4.3359375 C-2.2125 4.9959375 -3.8625 5.6559375 -5.5625 6.3359375 C-5.2325 7.9859375 -4.9025 9.6359375 -4.5625 11.3359375 C-2.9125 11.6659375 -1.2625 11.9959375 0.4375 12.3359375 C-0.5525 11.0159375 -1.5425 9.6959375 -2.5625 8.3359375 C-1.2425 8.0059375 0.0775 7.6759375 1.4375 7.3359375 C0.7775 6.3459375 0.1175 5.3559375 -0.5625 4.3359375 Z " fill="#EDF2EF" transform="translate(258.5625,228.6640625)"/>
<path d="M0 0 C0.556875 0.185625 1.11375 0.37125 1.6875 0.5625 C4.399133 1.07551165 6.34371039 0.6640724 9 0 C8.01 0.33 7.02 0.66 6 1 C6 1.99 6 2.98 6 4 C7.32 4 8.64 4 10 4 C10 3.01 10 2.02 10 1 C11.98 0.67 13.96 0.34 16 0 C15.5276449 2.20432382 14.99986136 4.00026096 13.9375 6 C12.71704408 8.23550185 12.71704408 8.23550185 13 12 C12.34 12 11.68 12 11 12 C10.938125 12.886875 10.87625 13.77375 10.8125 14.6875 C9.79461088 18.83735563 8.39785398 20.45160952 5 23 C2.1875 22.8125 2.1875 22.8125 0 22 C0.3125 20.0625 0.3125 20.0625 1 18 C1.99 17.67 2.98 17.34 4 17 C4 15.35 4 13.7 4 12 C3.01 11.67 2.02 11.34 1 11 C1.66 11 2.32 11 3 11 C2.34 10.01 1.68 9.02 1 8 C0.67 8.66 0.34 9.32 0 10 C-1.2380014 6.42355152 -0.74926071 3.66305234 0 0 Z M7 5 C8 7 8 7 8 7 Z " fill="#ECF2EF" transform="translate(750,229)"/>
<path d="M0 0 C0.99 0 1.98 0 3 0 C3.33 3.63 3.66 7.26 4 11 C4.99 11 5.98 11 7 11 C6.505 10.29875 6.01 9.5975 5.5 8.875 C3.8063319 5.62880281 3.74837685 3.60659844 4 0 C4.556875 0.185625 5.11375 0.37125 5.6875 0.5625 C8.39820835 1.07533672 10.32383562 0.56340303 13 0 C13.66 0.33 14.32 0.66 15 1 C15 2.98 15 4.96 15 7 C14.34 7 13.68 7 13 7 C13.15597656 7.56589844 13.31195312 8.13179687 13.47265625 8.71484375 C13.76462891 9.81505859 13.76462891 9.81505859 14.0625 10.9375 C14.35833984 12.03384766 14.35833984 12.03384766 14.66015625 13.15234375 C14.77230469 13.76207031 14.88445313 14.37179688 15 15 C14.67 15.33 14.34 15.66 14 16 C12 16 10 16 8 16 C7.01 16.33 6.02 16.66 5 17 C1.8125 16.0625 1.8125 16.0625 -1 15 C-2.51708428 4.44191344 -2.51708428 4.44191344 0 0 Z M6 2 C6.33 2.99 6.66 3.98 7 5 C7 4.01 7 3.02 7 2 C6.67 2 6.34 2 6 2 Z M13 2 C14 4 14 4 14 4 Z M8 5 C7.67 6.32 7.34 7.64 7 9 C7.66 7.68 8.32 6.36 9 5 C8.67 5 8.34 5 8 5 Z " fill="#E8EEEB" transform="translate(626,229)"/>
<path d="M0 0 C1.32 0 2.64 0 4 0 C5.75 2 5.75 2 7 4 C6.01 4 5.02 4 4 4 C4.33 4.66 4.66 5.32 5 6 C5.9075 5.95875 6.815 5.9175 7.75 5.875 C10.94621811 5.99793147 12.28410836 6.50035549 15 8 C15.02694851 9.95825873 15.04637218 11.91662226 15.0625 13.875 C15.07410156 14.96554688 15.08570313 16.05609375 15.09765625 17.1796875 C15 20 15 20 14 22 C12.68 21.67 11.36 21.34 10 21 C10 17.37 10 13.74 10 10 C9.01 10.66 8.02 11.32 7 12 C6.01 12.495 6.01 12.495 5 13 C4.67 13.99 4.34 14.98 4 16 C7.0745356 15.2236068 7.0745356 15.2236068 9 13 C8.6875 14.875 8.6875 14.875 8 17 C7.01 17.66 6.02 18.32 5 19 C4.67 19.99 4.34 20.98 4 22 C2.68 22 1.36 22 0 22 C0 14.74 0 7.48 0 0 Z " fill="#EDF3F0" transform="translate(662,223)"/>
<path d="M0 0 C1.91595968 -0.08133791 3.83291932 -0.13934367 5.75 -0.1875 C7.35101562 -0.23970703 7.35101562 -0.23970703 8.984375 -0.29296875 C12.3938496 0.03826259 13.77721648 0.38496056 16 3 C16.171875 5.91796875 16.171875 5.91796875 15.75 9.1875 C15.62109375 10.27417969 15.4921875 11.36085937 15.359375 12.48046875 C15.24078125 13.31191406 15.1221875 14.14335937 15 15 C15.66 15.33 16.32 15.66 17 16 C15.02 16 13.04 16 11 16 C9.8422494 12.52674819 9.93133348 9.63932552 10 6 C9.01 5.67 8.02 5.34 7 5 C7.33 6.32 7.66 7.64 8 9 C7.67 9 7.34 9 7 9 C7 11.31 7 13.62 7 16 C5.02 16 3.04 16 1 16 C0.34 14.68 -0.32 13.36 -1 12 C-0.34 12 0.32 12 1 12 C0.51515724 7.35413108 0.51515724 7.35413108 -1 3 C-0.67 2.01 -0.34 1.02 0 0 Z " fill="#EEF2F0" transform="translate(541,229)"/>
<path d="M0 0 C2.12472576 -0.05386629 4.24983652 -0.09273071 6.375 -0.125 C7.55835938 -0.14820313 8.74171875 -0.17140625 9.9609375 -0.1953125 C13 0 13 0 15 2 C15.37890625 4.75 15.37890625 4.75 15.5625 8 C15.69920211 12.15326204 15.69920211 12.15326204 17 16 C15.35 16 13.7 16 12 16 C9.67409146 12.36576791 9.83734167 9.22911669 10 5 C9.01 5.495 9.01 5.495 8 6 C7.31270746 8.11846285 7.31270746 8.11846285 6.875 10.5625 C6.70742188 11.38878906 6.53984375 12.21507812 6.3671875 13.06640625 C6.24601562 13.70449219 6.12484375 14.34257812 6 15 C4.68 15.33 3.36 15.66 2 16 C-0.14336161 12.5233662 -0.21277626 9.78770805 -0.125 5.75 C-0.10695313 4.67234375 -0.08890625 3.5946875 -0.0703125 2.484375 C-0.04710937 1.66453125 -0.02390625 0.8446875 0 0 Z " fill="#F5F7F6" transform="translate(271,229)"/>
<path d="M0 0 C1.77074917 -0.02705729 3.54161711 -0.04642195 5.3125 -0.0625 C6.29863281 -0.07410156 7.28476563 -0.08570313 8.30078125 -0.09765625 C11 0 11 0 14 1 C13.67 5.95 13.34 10.9 13 16 C11.35 16 9.7 16 8 16 C8.33 13.03 8.66 10.06 9 7 C8.01 8.485 8.01 8.485 7 10 C5 9 5 9 4 8 C4 10.31 4 12.62 4 15 C2.68 15.33 1.36 15.66 0 16 C0 15.34 0 14.68 0 14 C-0.66 14 -1.32 14 -2 14 C-2 13.34 -2 12.68 -2 12 C-1.34 12 -0.68 12 0 12 C-0.08378906 11.30132812 -0.16757813 10.60265625 -0.25390625 9.8828125 C-0.35574219 8.97273437 -0.45757812 8.06265625 -0.5625 7.125 C-0.66691406 6.22007812 -0.77132812 5.31515625 -0.87890625 4.3828125 C-1 2 -1 2 0 0 Z M5 5 C5.66 5.66 6.32 6.32 7 7 C7 6.34 7 5.68 7 5 C6.34 5 5.68 5 5 5 Z " fill="#EDF0EE" transform="translate(205,229)"/>
<path d="M0 0 C1.17691406 0.00257813 2.35382813 0.00515625 3.56640625 0.0078125 C5.32791016 0.00394531 5.32791016 0.00394531 7.125 0 C10.12890625 0.1328125 10.12890625 0.1328125 12.12890625 1.1328125 C12.12890625 6.0828125 12.12890625 11.0328125 12.12890625 16.1328125 C10.80890625 16.1328125 9.48890625 16.1328125 8.12890625 16.1328125 C6.84572733 12.28327574 7.06246988 9.18543115 7.12890625 5.1328125 C6.67515625 5.6278125 6.22140625 6.1228125 5.75390625 6.6328125 C4.12890625 8.1328125 4.12890625 8.1328125 2.12890625 8.1328125 C2.12890625 10.7728125 2.12890625 13.4128125 2.12890625 16.1328125 C0.19140625 15.7578125 0.19140625 15.7578125 -1.87109375 15.1328125 C-3.2044147 12.4661706 -2.54211408 10.96600947 -1.87109375 8.1328125 C-2.53109375 7.8028125 -3.19109375 7.4728125 -3.87109375 7.1328125 C-3.54109375 6.8028125 -3.21109375 6.4728125 -2.87109375 6.1328125 C-3.20109375 6.1328125 -3.53109375 6.1328125 -3.87109375 6.1328125 C-3.91381475 4.46669345 -3.91173207 2.79898365 -3.87109375 1.1328125 C-2.87109375 0.1328125 -2.87109375 0.1328125 0 0 Z " fill="#F1F4F2" transform="translate(435.87109375,228.8671875)"/>
<path d="M0 0 C0 1.65 0 3.3 0 5 C1.32 5.33 2.64 5.66 4 6 C4 6.99 4 7.98 4 9 C2.68 9 1.36 9 0 9 C0 10.32 0 11.64 0 13 C1.32 13.33 2.64 13.66 4 14 C2.68 14 1.36 14 0 14 C0.33 14.66 0.66 15.32 1 16 C1.99 16 2.98 16 4 16 C4.33 16.99 4.66 17.98 5 19 C2.75 20.625 2.75 20.625 0 22 C-2.09375 21.4375 -2.09375 21.4375 -4 20 C-4.828125 17.3984375 -4.828125 17.3984375 -5.25 14.375 C-5.39953125 13.37210938 -5.5490625 12.36921875 -5.703125 11.3359375 C-5.80109375 10.56507813 -5.8990625 9.79421875 -6 9 C-6.66 9 -7.32 9 -8 9 C-8 7.68 -8 6.36 -8 5 C-7.01 4.67 -6.02 4.34 -5 4 C-5 3.34 -5 2.68 -5 2 C-2 0 -2 0 0 0 Z " fill="#EBF1ED" transform="translate(741,224)"/>
<path d="M0 0 C0.99 0.66 1.98 1.32 3 2 C3.22137393 4.62697064 3.28162025 7.00893964 3.1875 9.625 C3.17396484 10.33140625 3.16042969 11.0378125 3.14648438 11.765625 C3.1111104 13.51074128 3.05730221 15.25546608 3 17 C6.3 17.33 9.6 17.66 13 18 C13.33 19.32 13.66 20.64 14 22 C11.54159395 22.02691685 9.08348118 22.04679802 6.625 22.0625 C5.92632812 22.07087891 5.22765625 22.07925781 4.5078125 22.08789062 C-0.7734375 22.11328125 -0.7734375 22.11328125 -3 21 C-3.08132187 18.43685501 -3.14064175 15.87631582 -3.1875 13.3125 C-3.21263672 12.59126953 -3.23777344 11.87003906 -3.26367188 11.12695312 C-3.32672457 6.52410662 -2.77816458 3.69692767 0 0 Z " fill="#EEF1EF" transform="translate(391,223)"/>
<path d="M0 0 C0 0.66 0 1.32 0 2 C-0.66 2 -1.32 2 -2 2 C-2 2.99 -2 3.98 -2 5 C-0.68 5.33 0.64 5.66 2 6 C1.42415568 8.38564077 0.77772405 10.66682784 0 13 C0.66 13 1.32 13 2 13 C1.67 13.66 1.34 14.32 1 15 C0.34 14.67 -0.32 14.34 -1 14 C-0.67 14.66 -0.34 15.32 0 16 C0.67349161 17.66392045 1.3409159 19.33032028 2 21 C-1 22 -1 22 -3.625 21.0625 C-6 19 -6 19 -6.6875 15.0625 C-6.73003906 14.35996094 -6.77257812 13.65742188 -6.81640625 12.93359375 C-7.03544276 10.62671992 -7.91169244 9.02114261 -9 7 C-8.67 6.34 -8.34 5.68 -8 5 C-7.34 5 -6.68 5 -6 5 C-6 4.01 -6 3.02 -6 2 C-3 0 -3 0 0 0 Z " fill="#E1EBE5" transform="translate(654,224)"/>
<path d="M0 0 C2.1640625 -0.29296875 2.1640625 -0.29296875 4.625 -0.1875 C5.44226563 -0.16042969 6.25953125 -0.13335937 7.1015625 -0.10546875 C8.04128906 -0.05326172 8.04128906 -0.05326172 9 0 C9.33 1.32 9.66 2.64 10 4 C9.01 4.33 8.02 4.66 7 5 C5.19837331 7.52227736 4.95160864 8.64513 5.375 11.75 C5.58125 12.4925 5.7875 13.235 6 14 C5.34 14 4.68 14 4 14 C4 14.66 4 15.32 4 16 C2.02 16 0.04 16 -2 16 C-2.33 13.03 -2.66 10.06 -3 7 C-2.01 7 -1.02 7 0 7 C0 6.01 0 5.02 0 4 C-0.66 3.67 -1.32 3.34 -2 3 C-1.34 2.01 -0.68 1.02 0 0 Z M-2 8 C-1.67 8.99 -1.34 9.98 -1 11 C-0.67 10.01 -0.34 9.02 0 8 C-0.66 8 -1.32 8 -2 8 Z " fill="#EFF2F0" transform="translate(708,229)"/>
<path d="M0 0 C0.99 0.33 1.98 0.66 3 1 C3.83268859 6.72473404 4.10259234 12.22063172 4 18 C4 18.99 4 19.98 4 21 C4 21.33 4 21.66 4 22 C2.33388095 22.042721 0.66617115 22.04063832 -1 22 C-3.2397148 19.7602852 -2.18531833 14.57102512 -2.1875 11.5625 C-2.19974609 10.67755859 -2.21199219 9.79261719 -2.22460938 8.88085938 C-2.22654297 8.03458984 -2.22847656 7.18832031 -2.23046875 6.31640625 C-2.23457764 5.53724854 -2.23868652 4.75809082 -2.24291992 3.95532227 C-2 2 -2 2 0 0 Z " fill="#E3EAE6" transform="translate(192,223)"/>
<path d="M0 0 C0.02715383 1.74991334 0.04646551 3.49994945 0.0625 5.25 C0.07410156 6.22453125 0.08570313 7.1990625 0.09765625 8.203125 C0.01180181 10.66199607 -0.3986897 12.63809649 -1 15 C-0.67 15.33 -0.34 15.66 0 16 C0.04063832 17.66617115 0.042721 19.33388095 0 21 C-1.98 21 -3.96 21 -6 21 C-6.33 19.68 -6.66 18.36 -7 17 C-6.34 17 -5.68 17 -5 17 C-5.33 12.71 -5.66 8.42 -6 4 C-6.66 4 -7.32 4 -8 4 C-7 1 -7 1 -5.125 -0.25 C-3 -1 -3 -1 0 0 Z " fill="#E6EEEA" transform="translate(729,224)"/>
<path d="M0 0 C-7.59 0 -15.18 0 -23 0 C-23 13.2 -23 26.4 -23 40 C-23.33 40 -23.66 40 -24 40 C-24.16721596 34.32186163 -24.32781538 28.64359025 -24.48217773 22.96508789 C-24.5356778 21.03176791 -24.59101308 19.09849784 -24.64819336 17.1652832 C-24.72988175 14.39285041 -24.80505352 11.62030742 -24.87890625 8.84765625 C-24.90594131 7.97786636 -24.93297638 7.10807648 -24.96083069 6.21192932 C-25.01278164 4.14189685 -25.01188571 2.07065016 -25 0 C-22.87619004 -2.12380996 -18.62237059 -1.78255824 -15.6875 -2.125 C-14.91470703 -2.22425781 -14.14191406 -2.32351562 -13.34570312 -2.42578125 C-12.59611328 -2.51472656 -11.84652344 -2.60367188 -11.07421875 -2.6953125 C-10.04687622 -2.8193042 -10.04687622 -2.8193042 -8.9987793 -2.94580078 C-5.20695743 -3.04862043 -3.16853629 -2.11235753 0 0 Z " fill="#BED0C6" transform="translate(216,173)"/>
<path d="M0 0 C0 4.95 0 9.9 0 15 C-1.32 15 -2.64 15 -4 15 C-5.28317892 11.15046324 -5.06643637 8.05261865 -5 4 C-5.45375 4.495 -5.9075 4.99 -6.375 5.5 C-8 7 -8 7 -10 7 C-9.8125 4.125 -9.8125 4.125 -9 1 C-5.38946088 -1.24438918 -4.22939879 -1.0573497 0 0 Z " fill="#E2EAE5" transform="translate(448,230)"/>
<path d="M0 0 C25.74 0 51.48 0 78 0 C78.495 1.485 78.495 1.485 79 3 C78.01 2.67 77.02 2.34 76 2 C73.55113511 1.90927742 71.1314223 1.8738962 68.68286133 1.88647461 C67.94115189 1.88632858 67.19944244 1.88618256 66.43525696 1.8860321 C63.98415195 1.88672866 61.53312298 1.89450903 59.08203125 1.90234375 C57.38238059 1.90420884 55.68272939 1.90563232 53.983078 1.90663147 C49.50980139 1.91044945 45.03655724 1.92027362 40.56329346 1.93133545 C35.99858031 1.94156501 31.43386193 1.9461324 26.86914062 1.95117188 C17.91274615 1.96189651 8.95637578 1.97896433 0 2 C0 1.34 0 0.68 0 0 Z " fill="#FBEDB3" transform="translate(497,22)"/>
<path d="M0 0 C0.99 0.33 1.98 0.66 3 1 C4.47271188 4.93215655 4.11005061 9.10943954 4.0625 13.25 C4.05798828 13.99507812 4.05347656 14.74015625 4.04882812 15.5078125 C4.03709246 17.3385764 4.0191585 19.16929873 4 21 C2.35 21 0.7 21 -1 21 C-1.02888146 17.68751813 -1.04675799 14.37506833 -1.0625 11.0625 C-1.07087891 10.11697266 -1.07925781 9.17144531 -1.08789062 8.19726562 C-1.09111328 7.29814453 -1.09433594 6.39902344 -1.09765625 5.47265625 C-1.10289307 4.64000244 -1.10812988 3.80734863 -1.11352539 2.94946289 C-1 1 -1 1 0 0 Z " fill="#D5E0DA" transform="translate(340,224)"/>
<path d="M0 0 C0.02694851 1.95825873 0.04637218 3.91662226 0.0625 5.875 C0.07410156 6.96554688 0.08570313 8.05609375 0.09765625 9.1796875 C0 12 0 12 -1 14 C-2.32 13.67 -3.64 13.34 -5 13 C-5 9.37 -5 5.74 -5 2 C-6.65 1.67 -8.3 1.34 -10 1 C-9 -1 -9 -1 -7.25 -1.75 C-4.36320984 -2.07075446 -2.63333148 -1.13355328 0 0 Z " fill="#E3EBE6" transform="translate(677,231)"/>
<path d="M0 0 C1.98 0 3.96 0 6 0 C6 1.32 6 2.64 6 4 C5.34 4 4.68 4 4 4 C4 7.63 4 11.26 4 15 C2.68 15.33 1.36 15.66 0 16 C0 15.34 0 14.68 0 14 C-0.66 14 -1.32 14 -2 14 C-2 13.34 -2 12.68 -2 12 C-1.34 12 -0.68 12 0 12 C-0.08378906 11.30132812 -0.16757813 10.60265625 -0.25390625 9.8828125 C-0.35574219 8.97273437 -0.45757812 8.06265625 -0.5625 7.125 C-0.66691406 6.22007812 -0.77132812 5.31515625 -0.87890625 4.3828125 C-1 2 -1 2 0 0 Z " fill="#DCE7E0" transform="translate(205,229)"/>
<path d="M0 0 C1.2065625 0.0309375 1.2065625 0.0309375 2.4375 0.0625 C2.7675 1.0525 3.0975 2.0425 3.4375 3.0625 C2.7775 3.7225 2.1175 4.3825 1.4375 5.0625 C2.22125 5.041875 3.005 5.02125 3.8125 5 C6.4375 5.0625 6.4375 5.0625 8.4375 6.0625 C8.1075 7.0525 7.7775 8.0425 7.4375 9.0625 C1.0375 10.29326923 1.0375 10.29326923 -2 9.125 C-2.515625 8.774375 -3.03125 8.42375 -3.5625 8.0625 C-3.5625 7.4025 -3.5625 6.7425 -3.5625 6.0625 C-4.2225 6.0625 -4.8825 6.0625 -5.5625 6.0625 C-3.26136364 0.07954545 -3.26136364 0.07954545 0 0 Z " fill="#E3EBE6" transform="translate(354.5625,235.9375)"/>
<path d="M0 0 C0 0.99 0 1.98 0 3 C-11.88 3 -23.76 3 -36 3 C-32.33422946 0.55615297 -30.37024921 0.69413314 -25.99609375 0.5859375 C-25.31700455 0.56657135 -24.63791534 0.5472052 -23.93824768 0.5272522 C-21.77145896 0.46756568 -19.60461521 0.42114463 -17.4375 0.375 C-15.97458648 0.33680467 -14.51169507 0.29775202 -13.04882812 0.2578125 C-3.3603848 0 -3.3603848 0 0 0 Z " fill="#C1D4CA" transform="translate(616,170)"/>
<path d="M0 0 C4.29 0 8.58 0 13 0 C13 0.99 13 1.98 13 3 C11.01432292 2.67447917 9.02864583 2.34895833 7.04296875 2.0234375 C4.68244176 1.80422152 4.68244176 1.80422152 2 4 C1.6152248 6.87928249 1.6152248 6.87928249 1.77734375 10.25 C1.79603516 11.4978125 1.81472656 12.745625 1.83398438 14.03125 C1.86814453 15.3409375 1.90230469 16.650625 1.9375 18 C1.99724786 20.58314151 2.0484757 23.16649878 2.08984375 25.75 C2.11941162 26.89984375 2.14897949 28.0496875 2.17944336 29.234375 C2 32 2 32 0 34 C0 22.78 0 11.56 0 0 Z " fill="#C9DACF" transform="translate(603,180)"/>
<path d="M0 0 C1.98 0 3.96 0 6 0 C6 0.99 6 1.98 6 3 C5.34 3 4.68 3 4 3 C3.67 6.96 3.34 10.92 3 15 C2.01 15 1.02 15 0 15 C0 10.05 0 5.1 0 0 Z " fill="#EDEFEE" transform="translate(273,230)"/>
<path d="M0 0 C0.33 0 0.66 0 1 0 C1 11.22 1 22.44 1 34 C6.94 33.505 6.94 33.505 13 33 C12.67 33.66 12.34 34.32 12 35 C8.04 35 4.08 35 0 35 C-0.14303566 30.64007539 -0.2854351 26.2801306 -0.42724609 21.92016602 C-0.47557386 20.43708739 -0.5240752 18.95401441 -0.57275391 17.47094727 C-0.64270984 15.33871906 -0.7120407 13.2064713 -0.78125 11.07421875 C-0.82314453 9.79119873 -0.86503906 8.50817871 -0.90820312 7.1862793 C-0.96759403 5.12481453 -1 3.06232011 -1 1 C-0.67 0.67 -0.34 0.34 0 0 Z " fill="#FFFFFF" transform="translate(654,180)"/>
<path d="M0 0 C0.66 0 1.32 0 2 0 C2.06058594 0.63808594 2.12117187 1.27617187 2.18359375 1.93359375 C2.26738281 2.75988281 2.35117187 3.58617187 2.4375 4.4375 C2.51871094 5.26121094 2.59992187 6.08492187 2.68359375 6.93359375 C2.78930815 8.98662025 2.78930815 8.98662025 4 10 C4.04063832 11.66617115 4.042721 13.33388095 4 15 C2.02 15 0.04 15 -2 15 C-1.34 14.67 -0.68 14.34 0 14 C0 9.38 0 4.76 0 0 Z " fill="#F7F7F7" transform="translate(725,230)"/>
<path d="M0 0 C2.475 0.99 2.475 0.99 5 2 C4.67 2.99 4.34 3.98 4 5 C4.33 5.99 4.66 6.98 5 8 C3.02 8.99 3.02 8.99 1 10 C0.01 9.34 -0.98 8.68 -2 8 C-1.34 6.35 -0.68 4.7 0 3 C-0.66 2.67 -1.32 2.34 -2 2 C-1.34 1.34 -0.68 0.68 0 0 Z " fill="#FEFFFF" transform="translate(462,232)"/>
<path d="M0 0 C0 3.63 0 7.26 0 11 C0.99 11.33 1.98 11.66 3 12 C1.35 12 -0.3 12 -2 12 C-1.67 9.03 -1.34 6.06 -1 3 C-1.99 4.485 -1.99 4.485 -3 6 C-3.66 5.67 -4.32 5.34 -5 5 C-5.625 2.4375 -5.625 2.4375 -6 0 C-4 -1 -4 -1 0 0 Z M-5 1 C-4.34 1.66 -3.68 2.32 -3 3 C-3 2.34 -3 1.68 -3 1 C-3.66 1 -4.32 1 -5 1 Z " fill="#FDFFFF" transform="translate(215,233)"/>
<path d="M0 0 C2.64 0 5.28 0 8 0 C8.33 0.99 8.66 1.98 9 3 C8.01 3.99 7.02 4.98 6 6 C5.21625 5.67 4.4325 5.34 3.625 5 C1.15667503 3.88133489 1.15667503 3.88133489 -1 4 C-0.67 2.68 -0.34 1.36 0 0 Z " fill="#E6EEE9" transform="translate(322,229)"/>
<path d="M0 0 C0.6875 1.8125 0.6875 1.8125 1 4 C-0.03125 5.625 -0.03125 5.625 -2 7 C-5.35546875 7.29296875 -5.35546875 7.29296875 -9.1875 7.1875 C-10.45980469 7.16042969 -11.73210937 7.13335937 -13.04296875 7.10546875 C-14.01878906 7.07066406 -14.99460938 7.03585938 -16 7 C-15.67 6.01 -15.34 5.02 -15 4 C-14.30132812 4.08378906 -13.60265625 4.16757813 -12.8828125 4.25390625 C-11.97273437 4.35574219 -11.06265625 4.45757812 -10.125 4.5625 C-9.22007812 4.66691406 -8.31515625 4.77132812 -7.3828125 4.87890625 C-4.98346943 5.19674852 -4.98346943 5.19674852 -3 4 C-2.34 3.01 -1.68 2.02 -1 1 C-0.67 0.67 -0.34 0.34 0 0 Z " fill="#FFFFFF" transform="translate(219,199)"/>
<path d="M0 0 C1.875 0.125 1.875 0.125 4 1 C5.25 4.0625 5.25 4.0625 6 7 C3 9 3 9 0.8125 8.625 C0.214375 8.41875 -0.38375 8.2125 -1 8 C-0.835 7.236875 -0.67 6.47375 -0.5 5.6875 C0.09145396 2.96403764 0.09145396 2.96403764 0 0 Z " fill="#F8FAF9" transform="translate(416,233)"/>
<path d="M0 0 C0.66 0.33 1.32 0.66 2 1 C2 2.98 2 4.96 2 7 C1.34 7 0.68 7 0 7 C0.15597656 7.56589844 0.31195312 8.13179687 0.47265625 8.71484375 C0.66730469 9.44832031 0.86195313 10.18179688 1.0625 10.9375 C1.35833984 12.03384766 1.35833984 12.03384766 1.66015625 13.15234375 C1.77230469 13.76207031 1.88445313 14.37179688 2 15 C1 16 1 16 -1.5625 16.0625 C-2.366875 16.041875 -3.17125 16.02125 -4 16 C-3.01 15.67 -2.02 15.34 -1 15 C-1.01160156 14.00097656 -1.02320313 13.00195312 -1.03515625 11.97265625 C-1.04869141 10.03712891 -1.04869141 10.03712891 -1.0625 8.0625 C-1.07410156 6.77472656 -1.08570313 5.48695313 -1.09765625 4.16015625 C-1 1 -1 1 0 0 Z M0 2 C1 4 1 4 1 4 Z " fill="#FFFFFF" transform="translate(639,229)"/>
<path d="M0 0 C0 0.99 0 1.98 0 3 C-0.66 3 -1.32 3 -2 3 C-3.61949011 5.57213134 -4.04408751 6.67669159 -3.625 9.75 C-3.315625 10.86375 -3.315625 10.86375 -3 12 C-3.66 12 -4.32 12 -5 12 C-5 12.66 -5 13.32 -5 14 C-6.32 13.67 -7.64 13.34 -9 13 C-8.01 13 -7.02 13 -6 13 C-6.061875 11.741875 -6.12375 10.48375 -6.1875 9.1875 C-6.1875 5.26785714 -6.1875 5.26785714 -4.6875 3.125 C-3.125 2.08333333 -1.5625 1.04166667 0 0 Z " fill="#FCFFFF" transform="translate(717,231)"/>
<path d="M0 0 C0.66 0.33 1.32 0.66 2 1 C1.67 1.928125 1.34 2.85625 1 3.8125 C-0.45989695 8.80904873 -0.16784802 13.8433358 0 19 C-0.66 19.33 -1.32 19.66 -2 20 C-2.05392397 17.22890693 -2.09363455 14.45886182 -2.125 11.6875 C-2.14175781 10.90181641 -2.15851563 10.11613281 -2.17578125 9.30664062 C-2.18544922 8.1706543 -2.18544922 8.1706543 -2.1953125 7.01171875 C-2.20578613 6.31522217 -2.21625977 5.61872559 -2.22705078 4.90112305 C-2 3 -2 3 0 0 Z " fill="#FEFFFF" transform="translate(362,191)"/>
<path d="M0 0 C1.32 0.33 2.64 0.66 4 1 C3.67 1.99 3.34 2.98 3 4 C2.656509 9.33295432 2.656509 9.33295432 5 14 C4.01 14 3.02 14 2 14 C2 13.34 2 12.68 2 12 C1.34 12 0.68 12 0 12 C0 8.04 0 4.08 0 0 Z " fill="#FFFFFF" transform="translate(293,230)"/>
<path d="M0 0 C0.66 0.33 1.32 0.66 2 1 C2 5.95 2 10.9 2 16 C1.01 15.34 0.02 14.68 -1 14 C-1 13.34 -1 12.68 -1 12 C-0.34 12 0.32 12 1 12 C0.51515724 7.35413108 0.51515724 7.35413108 -1 3 C-0.67 2.01 -0.34 1.02 0 0 Z " fill="#FFFFFF" transform="translate(541,229)"/>
<path d="M0 0 C2.16796875 0.36328125 2.16796875 0.36328125 4 1 C2.71064081 2.14842923 1.41843421 3.29366227 0.125 4.4375 C-0.59429687 5.07558594 -1.31359375 5.71367187 -2.0546875 6.37109375 C-4 8 -4 8 -6 9 C-5.52753358 4.74780225 -3.22727623 2.62685275 0 0 Z " fill="#F6EBC5" transform="translate(492,24)"/>
<path d="M0 0 C3.96 0 7.92 0 12 0 C12 0.99 12 1.98 12 3 C11.34 3 10.68 3 10 3 C10 2.34 10 1.68 10 1 C6.65626525 1.55728913 3.96687001 2.35173889 1 4 C0.67 2.68 0.34 1.36 0 0 Z " fill="#FFFFFF" transform="translate(203,180)"/>
<path d="M0 0 C1.24546405 2.49092811 0.7767578 3.41080733 0 6 C-1.32 6.33 -2.64 6.66 -4 7 C-4.33 6.01 -4.66 5.02 -5 4 C-3 1 -3 1 0 0 Z " fill="#DAE5DF" transform="translate(524,229)"/>
<path d="M0 0 C0.66 0 1.32 0 2 0 C2.4125 0.639375 2.825 1.27875 3.25 1.9375 C5.59697894 4.70358232 7.48008781 4.68711892 11 5 C10.34 5.66 9.68 6.32 9 7 C5.83987005 6.79828958 3.70335103 6.51579075 1.125 4.625 C0 3 0 3 0 0 Z " fill="#FDFFFF" transform="translate(282,199)"/>
<path d="M0 0 C1.65 1.65 3.3 3.3 5 5 C4.01 5.66 3.02 6.32 2 7 C1.01 6.67 0.02 6.34 -1 6 C-1.042721 4.33388095 -1.04063832 2.66617115 -1 1 C-0.67 0.67 -0.34 0.34 0 0 Z " fill="#FFFFFF" transform="translate(570,238)"/>
<path d="M0 0 C3.3 0 6.6 0 10 0 C9.1875 2.4375 9.1875 2.4375 8 5 C7.01 5.33 6.02 5.66 5 6 C5 4.68 5 3.36 5 2 C3.35 1.67 1.7 1.34 0 1 C0 0.67 0 0.34 0 0 Z " fill="#FFFFFF" transform="translate(246,201)"/>
<path d="M0 0 C1.66666667 1.66666667 3.33333333 3.33333333 5 5 C3.68 5 2.36 5 1 5 C0.67 5.99 0.34 6.98 0 8 C-1 7 -1 7 -1.125 4 C-1 1 -1 1 0 0 Z " fill="#FFFFFF" transform="translate(689,233)"/>
<path d="M0 0 C2.0625 2.1875 2.0625 2.1875 4 5 C3.75 7.8125 3.75 7.8125 3 10 C2.01 9.67 1.02 9.34 0 9 C0 8.34 0 7.68 0 7 C0.66 7 1.32 7 2 7 C2 6.34 2 5.68 2 5 C1.34 5 0.68 5 0 5 C0 3.35 0 1.7 0 0 Z " fill="#FFFFFF" transform="translate(517,233)"/>
<path d="M0 0 C1.65 0 3.3 0 5 0 C4.01 1.485 4.01 1.485 3 3 C3.33 3.66 3.66 4.32 4 5 C2.35 4.67 0.7 4.34 -1 4 C-0.67 2.68 -0.34 1.36 0 0 Z " fill="#DFE7E2" transform="translate(351,230)"/>
<path d="M0 0 C0.66 0.33 1.32 0.66 2 1 C2.5625 2.8125 2.5625 2.8125 3 5 C3.185625 5.7425 3.37125 6.485 3.5625 7.25 C3.706875 7.8275 3.85125 8.405 4 9 C2.02 7.35 0.04 5.7 -2 4 C-1.34 2.68 -0.68 1.36 0 0 Z " fill="#FDFFFF" transform="translate(227,189)"/>
<path d="M0 0 C0.625 1.875 0.625 1.875 1 4 C0.34 4.66 -0.32 5.32 -1 6 C-2.32 4.68 -3.64 3.36 -5 2 C-3.35 1.34 -1.7 0.68 0 0 Z " fill="#FFFFFF" transform="translate(260,235)"/>
<path d="M0 0 C0.66 0.33 1.32 0.66 2 1 C2 1.66 2 2.32 2 3 C1.34 3 0.68 3 0 3 C0.33 4.65 0.66 6.3 1 8 C0.01 8 -0.98 8 -2 8 C-2 5.69 -2 3.38 -2 1 C-1.34 0.67 -0.68 0.34 0 0 Z " fill="#FBFEFC" transform="translate(318,229)"/>
<path d="M0 0 C1.9375 0.3125 1.9375 0.3125 4 1 C4.33 1.99 4.66 2.98 5 4 C3.125 4.625 3.125 4.625 1 5 C0.34 4.34 -0.32 3.68 -1 3 C-0.67 2.01 -0.34 1.02 0 0 Z M2 1 C3 3 3 3 3 3 Z " fill="#FFFFFF" transform="translate(232,237)"/>
<path d="M0 0 C-0.99 0.495 -0.99 0.495 -2 1 C-2 1.66 -2 2.32 -2 3 C-4.64 3 -7.28 3 -10 3 C-6.88378718 -0.11621282 -4.21175599 -0.11383124 0 0 Z " fill="#FFFFFF" transform="translate(466,189)"/>
<path d="M0 0 C0.33 0 0.66 0 1 0 C1 4.95 1 9.9 1 15 C0.67 15 0.34 15 0 15 C0 10.05 0 5.1 0 0 Z " fill="#FFFFFF" transform="translate(658,230)"/>
<path d="M0 0 C0.66 0.99 1.32 1.98 2 3 C0.35 3 -1.3 3 -3 3 C-3 2.34 -3 1.68 -3 1 C-2.01 0.67 -1.02 0.34 0 0 Z " fill="#FFFFFF" transform="translate(710,202)"/>
<path d="M0 0 C0.33 0 0.66 0 1 0 C1.33 2.64 1.66 5.28 2 8 C1.34 8 0.68 8 0 8 C0 5.36 0 2.72 0 0 Z " fill="#FFFFFF" transform="translate(557,234)"/>
<path d="M0 0 C0.33 0 0.66 0 1 0 C1 2.97 1 5.94 1 9 C0.67 9 0.34 9 0 9 C0 6.03 0 3.06 0 0 Z " fill="#FFFFFF" transform="translate(347,197)"/>
<path d="M0 0 C0.33 0 0.66 0 1 0 C1 1.65 1 3.3 1 5 C0.34 3.68 -0.32 2.36 -1 1 C-0.67 0.67 -0.34 0.34 0 0 Z " fill="#FFFFFF" transform="translate(440,237)"/>
<path d="M0 0 C0.99 0.495 0.99 0.495 2 1 C1.67 1.99 1.34 2.98 1 4 C0.67 2.68 0.34 1.36 0 0 Z " fill="#FFFFFF" transform="translate(681,232)"/>
<path d="M0 0 C0 3 0 3 0 3 Z " fill="#FFFFFF" transform="translate(734,236)"/>
<path d="M0 0 C1 4 1 4 1 4 Z " fill="#FFFFFF" transform="translate(426,233)"/>
<path d="M0 0 C0 3 0 3 0 3 Z " fill="#FFFFFF" transform="translate(267,231)"/>
<path d="" fill="#FFFFFF" transform="translate(0,0)"/>
<path d="" fill="#FFFFFF" transform="translate(0,0)"/>
<path d="" fill="#FFFFFF" transform="translate(0,0)"/>
<path d="M0 0 C0.66 0.66 1.32 1.32 2 2 C1.34 2 0.68 2 0 2 C0 1.34 0 0.68 0 0 Z " fill="#FFFFFF" transform="translate(747,229)"/>
<path d="M0 0 C0.66 0.66 1.32 1.32 2 2 C1.34 2 0.68 2 0 2 C0 1.34 0 0.68 0 0 Z " fill="#FFFFFF" transform="translate(233,226)"/>
<path d="" fill="#FFFFFF" transform="translate(0,0)"/>
<path d="M0 0 C2 1 2 1 2 1 Z " fill="#FFFFFF" transform="translate(748,245)"/>
<path d="" fill="#FFFFFF" transform="translate(0,0)"/>
<path d="" fill="#FFFFFF" transform="translate(0,0)"/>
<path d="" fill="#FFFFFF" transform="translate(0,0)"/>
<path d="" fill="#FFFFFF" transform="translate(0,0)"/>
<path d="M0 0 C2 1 2 1 2 1 Z " fill="#FFFFFF" transform="translate(406,242)"/>
<path d="" fill="#FFFFFF" transform="translate(0,0)"/>
<path d="M0 0 C2 1 2 1 2 1 Z " fill="#FFFFFF" transform="translate(255,239)"/>
<path d="" fill="#FFFFFF" transform="translate(0,0)"/>
<path d="" fill="#FFFFFF" transform="translate(0,0)"/>
<path d="" fill="#FFFFFF" transform="translate(0,0)"/>
<path d="" fill="#FFFFFF" transform="translate(0,0)"/>
<path d="" fill="#FFFFFF" transform="translate(0,0)"/>
<path d="" fill="#FFFFFF" transform="translate(0,0)"/>
<path d="M0 0 C2 1 2 1 2 1 Z " fill="#FFFFFF" transform="translate(348,237)"/>
<path d="" fill="#FFFFFF" transform="translate(0,0)"/>
<path d="M0 0 C2 1 2 1 2 1 Z " fill="#FFFFFF" transform="translate(313,236)"/>
<path d="" fill="#FFFFFF" transform="translate(0,0)"/>
<path d="" fill="#FFFFFF" transform="translate(0,0)"/>
<path d="M0 0 C2 1 2 1 2 1 Z " fill="#FFFFFF" transform="translate(345,233)"/>
<path d="" fill="#FFFFFF" transform="translate(0,0)"/>
<path d="" fill="#FFFFFF" transform="translate(0,0)"/>
<path d="" fill="#FFFFFF" transform="translate(0,0)"/>
<path d="" fill="#FFFFFF" transform="translate(0,0)"/>
<path d="M0 0 C2 1 2 1 2 1 Z " fill="#FFFFFF" transform="translate(247,230)"/>
<path d="" fill="#FFFFFF" transform="translate(0,0)"/>
<path d="" fill="#FFFFFF" transform="translate(0,0)"/>
<path d="M0 0 C2 1 2 1 2 1 Z " fill="#FFFFFF" transform="translate(649,223)"/>
<path d="" fill="#FFFFFF" transform="translate(0,0)"/>
<path d="" fill="#FFFFFF" transform="translate(0,0)"/>
<path d="" fill="#FFFFFF" transform="translate(0,0)"/>
<path d="M0 0 C2 1 2 1 2 1 Z " fill="#FFFFFF" transform="translate(618,195)"/>
<path d="" fill="#FFFFFF" transform="translate(0,0)"/>
<path d="" fill="#FFFFFF" transform="translate(0,0)"/>
<path d="" fill="#FFFFFF" transform="translate(0,0)"/>
<path d="" fill="#FFFFFF" transform="translate(0,0)"/>
<path d="" fill="#FFFFFF" transform="translate(0,0)"/>
<path d="" fill="#FFFFFF" transform="translate(0,0)"/>
<path d="" fill="#FFFFFF" transform="translate(0,0)"/>
<path d="" fill="#FFFFFF" transform="translate(0,0)"/>
<path d="" fill="#FFFFFF" transform="translate(0,0)"/>
<path d="" fill="#FFFFFF" transform="translate(0,0)"/>
<path d="" fill="#FFFFFF" transform="translate(0,0)"/>
<path d="" fill="#FFFFFF" transform="translate(0,0)"/>
<path d="" fill="#FFFFFF" transform="translate(0,0)"/>
<path d="" fill="#FFFFFF" transform="translate(0,0)"/>
<path d="" fill="#FFFFFF" transform="translate(0,0)"/>
<path d="" fill="#FFFFFF" transform="translate(0,0)"/>
<path d="" fill="#FFFFFF" transform="translate(0,0)"/>
<path d="" fill="#FFFFFF" transform="translate(0,0)"/>
<path d="" fill="#FFFFFF" transform="translate(0,0)"/>
<path d="" fill="#FFFFFF" transform="translate(0,0)"/>
<path d="" fill="#FFFFFF" transform="translate(0,0)"/>
<path d="" fill="#FFFFFF" transform="translate(0,0)"/>
<path d="" fill="#FFFFFF" transform="translate(0,0)"/>
<path d="" fill="#FFFFFF" transform="translate(0,0)"/>
<path d="" fill="#FFFFFF" transform="translate(0,0)"/>
<path d="" fill="#FFFFFF" transform="translate(0,0)"/>
<path d="" fill="#FFFFFF" transform="translate(0,0)"/>
<path d="" fill="#FFFFFF" transform="translate(0,0)"/>
<path d="" fill="#FFFFFF" transform="translate(0,0)"/>
<path d="" fill="#FFFFFF" transform="translate(0,0)"/>
<path d="" fill="#FFFFFF" transform="translate(0,0)"/>
<path d="" fill="#FFFFFF" transform="translate(0,0)"/>
<path d="" fill="#FFFFFF" transform="translate(0,0)"/>
<path d="" fill="#FFFFFF" transform="translate(0,0)"/>
<path d="" fill="#FFFFFF" transform="translate(0,0)"/>
<path d="" fill="#FFFFFF" transform="translate(0,0)"/>
<path d="" fill="#FFFFFF" transform="translate(0,0)"/>
<path d="" fill="#FFFFFF" transform="translate(0,0)"/>
<path d="" fill="#FFFFFF" transform="translate(0,0)"/>
<path d="" fill="#FFFFFF" transform="translate(0,0)"/>
<path d="" fill="#FFFFFF" transform="translate(0,0)"/>
<path d="" fill="#FFFFFF" transform="translate(0,0)"/>
<path d="" fill="#FFFFFF" transform="translate(0,0)"/>
<path d="" fill="#FFFFFF" transform="translate(0,0)"/>
<path d="" fill="#FFFFFF" transform="translate(0,0)"/>
<path d="" fill="#FFFFFF" transform="translate(0,0)"/>
<path d="" fill="#FFFFFF" transform="translate(0,0)"/>
<path d="" fill="#FFFFFF" transform="translate(0,0)"/>
<path d="" fill="#FFFFFF" transform="translate(0,0)"/>
<path d="" fill="#FFFFFF" transform="translate(0,0)"/>
<path d="" fill="#FFFFFF" transform="translate(0,0)"/>
<path d="" fill="#FFFFFF" transform="translate(0,0)"/>
<path d="" fill="#FFFFFF" transform="translate(0,0)"/>
<path d="" fill="#FFFFFF" transform="translate(0,0)"/>
<path d="" fill="#FFFFFF" transform="translate(0,0)"/>
<path d="" fill="#FFFFFF" transform="translate(0,0)"/>
<path d="" fill="#FFFFFF" transform="translate(0,0)"/>
<path d="" fill="#FFFFFF" transform="translate(0,0)"/>
<path d="" fill="#FFFFFF" transform="translate(0,0)"/>
<path d="" fill="#FFFFFF" transform="translate(0,0)"/>
<path d="" fill="#FFFFFF" transform="translate(0,0)"/>
<path d="" fill="#FFFFFF" transform="translate(0,0)"/>
<path d="" fill="#FFFFFF" transform="translate(0,0)"/>
<path d="" fill="#FFFFFF" transform="translate(0,0)"/>
<path d="" fill="#FFFFFF" transform="translate(0,0)"/>
<path d="" fill="#FFFFFF" transform="translate(0,0)"/>
<path d="" fill="#FFFFFF" transform="translate(0,0)"/>
<path d="" fill="#FFFFFF" transform="translate(0,0)"/>
<path d="" fill="#FFFFFF" transform="translate(0,0)"/>
<path d="" fill="#FFFFFF" transform="translate(0,0)"/>
<path d="" fill="#FFFFFF" transform="translate(0,0)"/>
<path d="" fill="#FFFFFF" transform="translate(0,0)"/>
<path d="" fill="#FFFFFF" transform="translate(0,0)"/>
<path d="" fill="#FFFFFF" transform="translate(0,0)"/>
<path d="" fill="#FFFFFF" transform="translate(0,0)"/>
<path d="" fill="#FFFFFF" transform="translate(0,0)"/>
<path d="" fill="#FFFFFF" transform="translate(0,0)"/>
<path d="" fill="#FFFFFF" transform="translate(0,0)"/>
</svg>
